<svg width="16" height="16" viewBox="0 0 16 16" fill="none" xmlns="http://www.w3.org/2000/svg">
<path fill-rule="evenodd" clip-rule="evenodd" d="M0.724991 8C0.724991 3.98213 3.98212 0.724998 7.99999 0.724998C12.0179 0.724998 15.275 3.98213 15.275 8C15.275 12.0179 12.0179 15.275 7.99999 15.275C3.98212 15.275 0.724991 12.0179 0.724991 8ZM7.99999 1.775C4.56202 1.775 1.77499 4.56203 1.77499 8C1.77499 11.438 4.56202 14.225 7.99999 14.225C11.438 14.225 14.225 11.438 14.225 8C14.225 4.56203 11.438 1.775 7.99999 1.775Z" fill="#151832"/>
<path fill-rule="evenodd" clip-rule="evenodd" d="M7.99999 4.475C8.28994 4.475 8.52499 4.71005 8.52499 5V8.44533L10.8855 9.79417C11.1372 9.93802 11.2247 10.2587 11.0808 10.5105C10.937 10.7622 10.6163 10.8497 10.3645 10.7058L7.73952 9.20582C7.57594 9.11235 7.47499 8.9384 7.47499 8.75V5C7.47499 4.71005 7.71004 4.475 7.99999 4.475Z" fill="#583FFD"/>
</svg>
