<svg width="287" height="151" viewBox="0 0 287 151" fill="none" xmlns="http://www.w3.org/2000/svg">
<path d="M150.556 82.7484C151.354 81.8264 152.783 81.8264 153.581 82.7484L181.262 114.745C182.384 116.043 181.458 118.059 179.742 118.053L152.935 117.961L124.394 118.054C122.678 118.06 121.752 116.043 122.875 114.746L150.556 82.7484Z" fill="#37374A"/>
<rect x="263.083" y="79.4053" width="230" height="5" rx="2.5" transform="rotate(172.201 263.083 79.4053)" fill="#E8EDFB"/>
<rect x="33.1211" y="30.864" width="62.4216" height="62.4216" rx="4" transform="rotate(-7.23747 33.1211 30.864)" fill="#E8EDFB"/>
<rect x="25.5605" y="67.4465" width="32.7714" height="6.24216" rx="1" transform="rotate(-8.7526 25.5605 67.4465)" fill="#583FFD"/>
<rect x="41.9017" y="75.9247" width="15.6054" height="6.24216" rx="1" transform="rotate(-8.7526 41.9017 75.9247)" fill="#37374A"/>
<rect x="30.9496" y="62.1331" width="6.24216" height="56.1795" rx="1" transform="rotate(-98.7526 30.9496 62.1331)" fill="#EE9868"/>
<rect x="187" y="7.86401" width="62.4216" height="62.4216" rx="4" transform="rotate(-7.23747 187 7.86401)" fill="#E8EDFB"/>
<rect x="194.166" y="42.4397" width="32.7714" height="6.24216" rx="1" transform="rotate(-8.7526 194.166 42.4397)" fill="#EE9868"/>
<rect x="205.507" y="50.918" width="15.6054" height="6.24216" rx="1" transform="rotate(-8.7526 205.507 50.918)" fill="#37374A"/>
<rect x="203.555" y="37.1263" width="6.24216" height="56.1795" rx="1" transform="rotate(-98.7526 203.555 37.1263)" fill="#583FFD"/>
<circle cx="278" cy="51" r="9" fill="white"/>
<circle cx="278" cy="51" r="9" fill="#E8EDFB"/>
<path fill-rule="evenodd" clip-rule="evenodd" d="M278.2 46C277.814 46 277.5 46.3134 277.5 46.7V51.2938L274.353 53.0922C274.017 53.284 273.901 53.7116 274.092 54.0473C274.284 54.383 274.712 54.4996 275.047 54.3078L278.547 52.3078C278.766 52.1831 278.9 51.9512 278.9 51.7V46.7C278.9 46.3134 278.587 46 278.2 46Z" fill="#37374A"/>
<circle cx="9" cy="39" r="9" fill="#E8EDFB"/>
<path fill-rule="evenodd" clip-rule="evenodd" d="M8.7 34C9.0866 34 9.4 34.3134 9.4 34.7V39.2938L12.5473 41.0922C12.883 41.284 12.9996 41.7116 12.8078 42.0473C12.616 42.383 12.1884 42.4996 11.8527 42.3078L8.3527 40.3078C8.1346 40.1831 8 39.9512 8 39.7V34.7C8 34.3134 8.3134 34 8.7 34Z" fill="#37374A"/>
</svg>
