<svg xmlns="http://www.w3.org/2000/svg" width="194" height="172" fill="none" xmlnsV="https://vecta.io/nano"><g clip-path="url(#D)"><g opacity=".4" fill="#ff4f4f"><path d="M40.5877 72.726c1.3792.7962 2.4971 2.7783 2.4971 4.4272v11.9421c0 1.6489-1.1179 2.3401-2.4971 1.5438s-2.4971-2.7784-2.4971-4.4272V74.2698c0-1.6489 1.118-2.3401 2.4971-1.5438zm0 23.8842c-1.3791-.7963-2.4971-.1051-2.4971 1.5438s1.118 3.631 2.4971 4.427l.025.015c1.3791.796 2.4971.105 2.4971-1.544s-1.118-3.6312-2.4971-4.4274l-.025-.0144z"/><path fill-rule="evenodd" d="M36.9119 53.5358c1.1219-.1074 2.3877.2266 3.6753.97s2.5533 1.8709 3.6752 3.2738 2.0622 3.034 2.7299 4.7356l.0072.0184L68.1501 116.96l.0203.053c.6541 1.732 1.0002 3.468 1.0039 5.034s-.3352 2.908-.983 3.892-1.5818 1.578-2.7092 1.72-2.4088-.171-3.7168-.909l-.0275-.015-42.3288-24.439c-1.308-.772-2.5894-1.939-3.7168-3.3829s-2.0614-3.1155-2.7092-4.8482-.9866-3.4661-.983-5.0279.3498-2.8975 1.0039-3.8742l.0203-.0295 21.1507-30.004 2.1421 2.7709-2.135-2.781c.6678-.9306 1.608-1.4759 2.7299-1.5834zm1.5432 7.1413L17.3206 90.6582c-.2127.3244-.3251.7649-.3263 1.2789-.0013.5206.1117 1.0985.3276 1.676s.5273 1.1347.9031 1.6161.7955.8632 1.2275 1.1207l42.2694 24.4041c.432.242.8549.344 1.2274.297s.6872-.245.9031-.574.3289-.775.3277-1.297c-.0012-.515-.1137-1.086-.3263-1.656L42.7222 63.1467l-.003-.0077c-.2224-.5645-.5347-1.1053-.907-1.5709s-.7959-.8435-1.225-1.0913-.8511-.3591-1.2251-.3233-.6846.216-.907.5236z"/></g><g opacity=".4" fill="#c9cce6"><path d="M169.584 23.2051c.848.4898 1.536 1.709 1.536 2.7232v7.3454c0 1.0142-.688 1.4394-1.536.9496s-1.536-1.7089-1.536-2.7231v-7.3455c0-1.0142.688-1.4393 1.536-.9496zm0 14.691c-.848-.4898-1.536-.0647-1.536.9495s.688 2.2334 1.536 2.7232l.015.0089c.849.4897 1.536.0646 1.536-.9496s-.687-2.2334-1.536-2.7232l-.015-.0088z"/><path fill-rule="evenodd" d="M167.323 11.4015c.69-.0661 1.469.1394 2.261.5966s1.57 1.1508 2.26 2.0137 1.269 1.8662 1.679 2.9128l.005.0113 13.009 33.4773.013.0325c.402 1.0654.615 2.1328.617 3.096s-.206 1.7888-.604 2.3945-.973.9704-1.667 1.0578-1.481-.1053-2.286-.5592l-.017-.0095-26.036-15.032c-.804-.4751-1.593-1.1925-2.286-2.0807s-1.268-1.9163-1.666-2.9821-.607-2.132-.605-3.0926.215-1.7822.617-2.383l.013-.0181 13.01-18.4552 1.317 1.7044-1.313-1.7106c.411-.5724.989-.9078 1.679-.9739zm.949 4.3925l-12.999 18.4411c-.131.1995-.2.4705-.201.7866s.069.6756.201 1.0309.325.698.556.994.489.531.755.6894l25.999 15.0107c.266.1485.526.2114.755.1825s.423-.1507.556-.3526.202-.4771.201-.7982-.07-.6677-.2-1.0183L170.897 17.313l-.002-.0047c-.137-.3472-.329-.6799-.558-.9662s-.489-.5188-.753-.6713-.524-.2209-.754-.1988-.421.1328-.558.322z"/></g><g opacity=".4" fill="#c9cce6"><path d="M12.0839 17.9466c.5829.3366 1.0555 1.1744 1.0555 1.8714v5.0479c0 .6969-.4726.9891-1.0555.6525s-1.0555-1.1744-1.0555-1.8713v-5.0479c0-.697.4725-.9891 1.0555-.6526zm0 10.0958c-.583-.3366-1.0555-.0444-1.0555.6525s.4725 1.5348 1.0555 1.8714l.0105.0061c.583.3366 1.0556.0444 1.0556-.6526s-.4726-1.5348-1.0556-1.8713l-.0105-.0061z"/><path fill-rule="evenodd" d="M10.5301 9.8351c.4743-.0454 1.0093.0958 1.5535.4101s1.0793.7908 1.5536 1.3838.8716 1.2824 1.1539 2.0017l.003.0078 8.9403 23.0058.0085.0224c.2765.7321.4228 1.4656.4244 2.1276s-.1417 1.2293-.4155 1.6455-.6687.6669-1.1452.727-1.0182-.0724-1.5711-.3844l-.0116-.0065L3.1318 30.4457c-.5529-.3265-1.0945-.8195-1.5711-1.4299a7.812 7.812 0 0 1-1.1452-2.0493C.1417 26.2341-.0015 25.5014 0 24.8412s.1478-1.2247.4243-1.6376l.0086-.0125 8.9403-12.6825.9055 1.1713-.9025-1.1755c.2823-.3934.6797-.6239 1.1539-.6693zm.6524 3.0185L2.249 25.5265c-.0899.1371-.1375.3233-.138.5406s.0472.4643.1385.7084.2229.4797.3817.6831.3362.3649.5188.4737l17.8671 10.3156c.1826.102.3614.1452.5188.1254s.2905-.1036.3817-.2424.1391-.3278.1385-.5485-.048-.4588-.1379-.6998l-8.9322-22.9851-.0013-.0032c-.094-.2386-.226-.4673-.3833-.664s-.3364-.3566-.5179-.4613-.3597-.1518-.5178-.1367a.522.522 0 0 0-.3833.2213z"/></g><path opacity=".3" d="M41.0204 1L181.559 81.9976l-.021 109.3574L41 110.357 41.0204 1z" fill="url(#A)"/><path opacity=".3" d="M41 1L181.206 81.8778V96.7071L41 15.8293V1Z" fill="url(#B)"/><path opacity=".2" d="M53.7139 1.353L193.919 82.2308v14.8293L53.7139 16.1823V1.353z" fill="url(#C)"/><path opacity=".2" d="M56.5392 17.3457c0 2.2614-1.353 3.3195-3.0019 2.3859s-3.0019-3.527-3.0019-5.7677 1.353-3.3195 3.0019-2.3859 3.0019 3.527 3.0019 5.7677z" fill="#fff"/></g><defs><linearGradient id="A" x1="124.271" y1="-101.164" x2="77.2241" y2="87.6021" gradientUnits="userSpaceOnUse"><stop stop-color="#212e99"/><stop offset="1" stop-color="#212e99" stop-opacity="0"/></linearGradient><linearGradient id="B" x1="124.062" y1="-50.3665" x2="111.595" y2="48.8714" gradientUnits="userSpaceOnUse"><stop stop-color="#212e99"/><stop offset="1" stop-color="#212e99" stop-opacity="0"/></linearGradient><linearGradient id="C" x1="134.941" y1="-38.7309" x2="135.258" y2="88.4055" gradientUnits="userSpaceOnUse"><stop stop-color="#212e99"/><stop offset="1" stop-color="#212e99" stop-opacity="0"/></linearGradient><clipPath id="D"><path fill="#fff" d="M0 0h194v172H0z"/></clipPath></defs></svg>
