<svg width="90" height="98" viewBox="0 0 90 98" fill="none" xmlns="http://www.w3.org/2000/svg">
<rect width="73.125" height="64.125" rx="4" transform="matrix(-1 0 0 1 73.875 33.875)" fill="#151832"/>
<rect width="73" height="81" rx="4" transform="matrix(-1 0 0 1 90 0)" fill="url(#paint0_linear_3794:1416)"/>
<path fill-rule="evenodd" clip-rule="evenodd" d="M43.3335 17.5595C43.3335 16.6982 44.0441 16 44.9208 16H59.6667C68.6873 16 76 23.1844 76 32.0467C76 40.3836 69.5288 47.2356 61.2522 48.0188C60.3796 48.1014 59.6667 47.3952 59.6667 46.534V38.9551C59.6667 38.0938 60.3924 37.4185 61.2322 37.1712C63.476 36.5105 65.1112 34.4662 65.1112 32.0467C65.1112 29.0926 62.6736 26.6978 59.6667 26.6978H55.4174C54.7574 26.6978 54.2223 27.2235 54.2223 27.872V30.4872C54.2223 31.3485 53.5116 32.0467 52.635 32.0467H44.9208C44.0441 32.0467 43.3335 31.3485 43.3335 30.4872V17.5595Z" fill="white"/>
<path d="M43.3335 38.9559C43.3335 38.0946 44.0441 37.3964 44.9208 37.3964H52.635C53.5116 37.3964 54.2223 38.0946 54.2223 38.9559V46.5347C54.2223 47.396 53.5116 48.0942 52.635 48.0942H44.9208C44.0441 48.0942 43.3335 47.396 43.3335 46.5347V38.9559Z" fill="white"/>
<path d="M43.3335 55.002C43.3335 54.1407 44.0441 53.4425 44.9208 53.4425H52.635C53.5116 53.4425 54.2223 54.1407 54.2223 55.002V62.5809C54.2223 63.4421 53.5116 64.1404 52.635 64.1404H44.9208C44.0441 64.1404 43.3335 63.4421 43.3335 62.5809V55.002Z" fill="white"/>
<path d="M27 38.9559C27 38.0946 27.7107 37.3964 28.5873 37.3964H36.3015C37.1782 37.3964 37.8888 38.0946 37.8888 38.9559V46.5347C37.8888 47.396 37.1782 48.0942 36.3015 48.0942H28.5873C27.7107 48.0942 27 47.396 27 46.5347V38.9559Z" fill="white"/>
<defs>
<linearGradient id="paint0_linear_3794:1416" x1="80.7044" y1="9.92513e-07" x2="4.15103" y2="68.9924" gradientUnits="userSpaceOnUse">
<stop stop-color="#3F22FE"/>
<stop offset="1" stop-color="#BEB5F8"/>
</linearGradient>
</defs>
</svg>
