<svg width="1490" height="353" viewBox="0 0 1490 353" fill="none" xmlns="http://www.w3.org/2000/svg">
<path fill-rule="evenodd" clip-rule="evenodd" d="M117.668 11.4353C117.668 5.11974 122.788 0 129.103 0H235.335C300.321 0 353.002 52.6812 353.002 117.667C353.002 178.799 306.383 229.043 246.757 234.786C240.47 235.392 235.335 230.214 235.335 223.898V168.324C235.335 162.009 240.563 157.057 246.613 155.244C262.777 150.399 274.557 135.409 274.557 117.667C274.557 96.0049 256.997 78.4445 235.335 78.4445H204.723C199.967 78.4445 196.113 82.2993 196.113 87.0544V106.232C196.113 112.547 190.993 117.667 184.677 117.667H129.103C122.788 117.667 117.668 112.547 117.668 106.232V11.4353Z" fill="url(#paint0_linear1)"/>
<path d="M117.668 168.328C117.668 162.012 122.788 156.892 129.103 156.892H184.677C190.993 156.892 196.113 162.012 196.113 168.328V223.902C196.113 230.217 190.993 235.337 184.677 235.337H129.103C122.788 235.337 117.668 230.217 117.668 223.902V168.328Z" fill="url(#paint0_linear1)"/>
<path d="M117.668 285.991C117.668 279.675 122.788 274.556 129.103 274.556H184.677C190.993 274.556 196.113 279.675 196.113 285.991V341.565C196.113 347.88 190.993 353 184.677 353H129.103C122.788 353 117.668 347.88 117.668 341.565V285.991Z" fill="url(#paint0_linear1)"/>
<path d="M0 168.328C0 162.012 5.11975 156.892 11.4353 156.892H67.0092C73.3248 156.892 78.4445 162.012 78.4445 168.328V223.902C78.4445 230.217 73.3248 235.337 67.0092 235.337H11.4353C5.11975 235.337 0 230.217 0 223.902V168.328Z" fill="url(#paint0_linear1)"/>
<path d="M529.157 86.5319C539.235 86.5319 548.094 88.5637 555.734 92.6274C563.373 96.5285 569.387 101.649 573.776 107.988V88.7263H608.155V224.778C608.155 237.294 605.635 248.429 600.597 258.182C595.558 268.097 587.999 275.899 577.921 281.588C567.843 287.44 555.652 290.366 541.348 290.366C522.168 290.366 506.4 285.896 494.047 276.956C481.856 268.016 474.948 255.825 473.322 240.383H507.213C509.001 246.559 512.821 251.436 518.673 255.012C524.687 258.75 531.92 260.62 540.373 260.62C550.288 260.62 558.334 257.613 564.511 251.598C570.688 245.747 573.776 236.807 573.776 224.778V203.81C569.387 210.149 563.292 215.432 555.49 219.658C547.85 223.884 539.072 225.997 529.157 225.997C517.779 225.997 507.376 223.071 497.948 217.22C488.52 211.368 481.043 203.159 475.517 192.594C470.152 181.866 467.47 169.593 467.47 155.777C467.47 142.123 470.152 130.013 475.517 119.448C481.043 108.882 488.439 100.755 497.704 95.0656C507.132 89.3765 517.616 86.5319 529.157 86.5319ZM573.776 156.265C573.776 147.975 572.151 140.904 568.9 135.052C565.649 129.038 561.26 124.487 555.734 121.398C550.207 118.147 544.274 116.522 537.935 116.522C531.595 116.522 525.744 118.066 520.38 121.154C515.015 124.243 510.627 128.794 507.213 134.808C503.962 140.66 502.337 147.65 502.337 155.777C502.337 163.904 503.962 171.056 507.213 177.233C510.627 183.247 515.015 187.88 520.38 191.131C525.906 194.382 531.758 196.007 537.935 196.007C544.274 196.007 550.207 194.463 555.734 191.375C561.26 188.124 565.649 183.572 568.9 177.721C572.151 171.707 573.776 164.554 573.776 156.265Z" fill="white"/>
<path d="M765.598 140.416C765.598 149.519 763.404 158.053 759.015 166.017C754.789 173.982 748.043 180.403 738.778 185.279C729.675 190.156 718.135 192.594 704.155 192.594H675.628V257.938H641.494V87.751H704.155C717.322 87.751 728.538 90.0266 737.803 94.578C747.068 99.1293 753.976 105.387 758.527 113.352C763.241 121.317 765.598 130.338 765.598 140.416ZM702.693 165.042C712.12 165.042 719.11 162.929 723.661 158.703C728.212 154.314 730.488 148.218 730.488 140.416C730.488 123.836 721.223 115.547 702.693 115.547H675.628V165.042H702.693Z" fill="white"/>
<path d="M823.969 143.83C828.357 136.678 834.046 131.07 841.036 127.006C848.188 122.942 856.315 120.911 865.418 120.911V156.752H856.397C845.669 156.752 837.541 159.272 832.015 164.311C826.651 169.35 823.969 178.127 823.969 190.643V257.938H789.834V122.861H823.969V143.83Z" fill="white"/>
<path d="M948.389 260.132C935.386 260.132 923.682 257.288 913.279 251.598C902.876 245.747 894.668 237.538 888.653 226.973C882.802 216.407 879.876 204.216 879.876 190.399C879.876 176.583 882.883 164.392 888.897 153.826C895.074 143.261 903.445 135.133 914.011 129.444C924.576 123.593 936.361 120.667 949.365 120.667C962.368 120.667 974.153 123.593 984.719 129.444C995.284 135.133 1003.57 143.261 1009.59 153.826C1015.77 164.392 1018.85 176.583 1018.85 190.399C1018.85 204.216 1015.68 216.407 1009.34 226.973C1003.17 237.538 994.715 245.747 983.987 251.598C973.422 257.288 961.556 260.132 948.389 260.132ZM948.389 230.386C954.566 230.386 960.337 228.923 965.701 225.997C971.227 222.909 975.616 218.358 978.867 212.343C982.118 206.329 983.743 199.014 983.743 190.399C983.743 177.558 980.33 167.724 973.503 160.897C966.838 153.908 958.63 150.413 948.877 150.413C939.124 150.413 930.916 153.908 924.251 160.897C917.749 167.724 914.498 177.558 914.498 190.399C914.498 203.241 917.668 213.156 924.007 220.146C930.509 226.973 938.637 230.386 948.389 230.386Z" fill="white"/>
<path d="M1105.82 150.901H1082.17V257.938H1047.55V150.901H1032.19V122.861H1047.55V116.034C1047.55 99.4544 1052.26 87.2633 1061.69 79.4611C1071.12 71.6588 1085.34 68.0015 1104.36 68.4892V97.26C1096.07 97.0974 1090.3 98.4791 1087.05 101.405C1083.8 104.331 1082.17 109.614 1082.17 117.253V122.861H1105.82V150.901Z" fill="white"/>
<path d="M1145.26 106.769C1139.24 106.769 1134.2 104.9 1130.14 101.161C1126.24 97.26 1124.29 92.4648 1124.29 86.7757C1124.29 81.0866 1126.24 76.3727 1130.14 72.6341C1134.2 68.733 1139.24 66.7824 1145.26 66.7824C1151.27 66.7824 1156.23 68.733 1160.13 72.6341C1164.19 76.3727 1166.22 81.0866 1166.22 86.7757C1166.22 92.4648 1164.19 97.26 1160.13 101.161C1156.23 104.9 1151.27 106.769 1145.26 106.769ZM1162.08 122.861V257.938H1127.94V122.861H1162.08Z" fill="white"/>
<path d="M1229.94 77.5105V257.938H1195.8V77.5105H1229.94Z" fill="white"/>
<path d="M1389.23 187.474C1389.23 192.35 1388.91 196.739 1388.26 200.64H1289.51C1290.32 210.393 1293.74 218.032 1299.75 223.559C1305.76 229.086 1313.16 231.849 1321.94 231.849C1334.62 231.849 1343.64 226.404 1349 215.513H1385.82C1381.92 228.517 1374.44 239.245 1363.39 247.697C1352.33 255.987 1338.76 260.132 1322.67 260.132C1309.67 260.132 1297.96 257.288 1287.56 251.598C1277.32 245.747 1269.27 237.538 1263.42 226.973C1257.73 216.407 1254.89 204.216 1254.89 190.399C1254.89 176.42 1257.73 164.148 1263.42 153.583C1269.11 143.017 1277.07 134.89 1287.32 129.2C1297.56 123.511 1309.34 120.667 1322.67 120.667C1335.51 120.667 1346.97 123.43 1357.05 128.957C1367.29 134.483 1375.17 142.367 1380.7 152.607C1386.39 162.685 1389.23 174.307 1389.23 187.474ZM1353.88 177.721C1353.72 168.943 1350.55 161.954 1344.37 156.752C1338.19 151.388 1330.63 148.706 1321.69 148.706C1313.24 148.706 1306.09 151.307 1300.24 156.508C1294.55 161.547 1291.05 168.618 1289.75 177.721H1353.88Z" fill="white"/>
<path d="M1448.28 143.83C1452.67 136.678 1458.36 131.07 1465.35 127.006C1472.5 122.942 1480.63 120.911 1489.73 120.911V156.752H1480.71C1469.98 156.752 1461.86 159.272 1456.33 164.311C1450.96 169.35 1448.28 178.127 1448.28 190.643V257.938H1414.15V122.861H1448.28V143.83Z" fill="white"/>
<defs>
<linearGradient id="paint0_linear1" x1="390.258" y1="4.3254e-06" x2="54.8304" y2="335.428" gradientUnits="userSpaceOnUse">
<stop stop-color="#1F00F0"/>
<stop offset="1" stop-color="#BEB5F8"/>
</linearGradient>
<linearGradient id="paint0_linear1" x1="390.258" y1="4.3254e-06" x2="54.8304" y2="335.428" gradientUnits="userSpaceOnUse">
<stop stop-color="#1F00F0"/>
<stop offset="1" stop-color="#BEB5F8"/>
</linearGradient>
<linearGradient id="paint0_linear1" x1="390.258" y1="4.3254e-06" x2="54.8304" y2="335.428" gradientUnits="userSpaceOnUse">
<stop stop-color="#1F00F0"/>
<stop offset="1" stop-color="#BEB5F8"/>
</linearGradient>
<linearGradient id="paint0_linear1" x1="390.258" y1="4.3254e-06" x2="54.8304" y2="335.428" gradientUnits="userSpaceOnUse">
<stop stop-color="#1F00F0"/>
<stop offset="1" stop-color="#BEB5F8"/>
</linearGradient>
</defs>
</svg>
