<svg width="1490" height="353" viewBox="0 0 1490 353" fill="none" xmlns="http://www.w3.org/2000/svg">
<path fill-rule="evenodd" clip-rule="evenodd" d="M117.668 11.4352C117.668 5.11972 122.787 0 129.103 0H235.334C300.319 0 353 52.681 353 117.666C353 178.798 306.381 229.042 246.755 234.785C240.469 235.391 235.334 230.213 235.334 223.897V168.323C235.334 162.008 240.562 157.056 246.611 155.243C262.776 150.398 274.556 135.408 274.556 117.666C274.556 96.0045 256.995 78.4441 235.334 78.4441H204.721C199.966 78.4441 196.112 82.2989 196.112 87.054V106.231C196.112 112.546 190.992 117.666 184.676 117.666H129.103C122.787 117.666 117.668 112.547 117.668 106.231V11.4352Z" fill="url(#paint0_linear1)"/>
<path d="M117.668 168.329C117.668 162.014 122.787 156.894 129.103 156.894H184.676C190.992 156.894 196.112 162.014 196.112 168.329V223.903C196.112 230.218 190.992 235.338 184.676 235.338H129.103C122.787 235.338 117.668 230.218 117.668 223.903V168.329Z" fill="url(#paint1_linear1)"/>
<path d="M117.668 285.991C117.668 279.676 122.787 274.556 129.103 274.556H184.676C190.992 274.556 196.112 279.676 196.112 285.991V341.565C196.112 347.88 190.992 353 184.676 353H129.103C122.787 353 117.668 347.88 117.668 341.565V285.991Z" fill="url(#paint2_linear1)"/>
<path d="M0 168.329C0 162.014 5.11972 156.894 11.4352 156.894H67.0089C73.3244 156.894 78.4441 162.014 78.4441 168.329V223.903C78.4441 230.218 73.3244 235.338 67.0089 235.338H11.4352C5.11973 235.338 0 230.218 0 223.903V168.329Z" fill="url(#paint3_linear1)"/>
<path d="M529.155 86.5315C539.232 86.5315 548.091 88.5633 555.731 92.627C563.371 96.5281 569.385 101.648 573.774 107.988V88.7259H608.152V224.777C608.152 237.293 605.633 248.428 600.594 258.18C595.555 268.096 587.996 275.898 577.918 281.587C567.841 287.439 555.65 290.364 541.346 290.364C522.165 290.364 506.398 285.894 494.045 276.954C481.854 268.014 474.945 255.823 473.32 240.382H507.211C508.999 246.558 512.819 251.435 518.67 255.011C524.685 258.749 531.918 260.619 540.37 260.619C550.286 260.619 558.332 257.611 564.508 251.597C570.685 245.746 573.774 236.805 573.774 224.777V203.809C569.385 210.148 563.289 215.431 555.487 219.657C547.847 223.883 539.07 225.996 529.155 225.996C517.776 225.996 507.373 223.07 497.946 217.219C488.518 211.367 481.041 203.158 475.514 192.593C470.15 181.865 467.468 169.593 467.468 155.776C467.468 142.122 470.15 130.013 475.514 119.447C481.041 108.882 488.437 100.754 497.702 95.0652C507.13 89.376 517.614 86.5315 529.155 86.5315ZM573.774 156.264C573.774 147.974 572.148 140.903 568.897 135.052C565.646 129.037 561.257 124.486 555.731 121.398C550.204 118.147 544.271 116.521 537.932 116.521C531.593 116.521 525.741 118.065 520.377 121.154C515.013 124.242 510.624 128.794 507.211 134.808C503.96 140.659 502.334 147.649 502.334 155.776C502.334 163.903 503.96 171.056 507.211 177.232C510.624 183.247 515.013 187.879 520.377 191.13C525.904 194.381 531.755 196.006 537.932 196.006C544.271 196.006 550.204 194.462 555.731 191.374C561.257 188.123 565.646 183.572 568.897 177.72C572.148 171.706 573.774 164.554 573.774 156.264Z" fill="black"/>
<path d="M765.595 140.416C765.595 149.518 763.4 158.052 759.011 166.017C754.785 173.981 748.04 180.402 738.774 185.278C729.672 190.155 718.131 192.593 704.152 192.593H675.625V257.937H641.491V87.7506H704.152C717.318 87.7506 728.534 90.0262 737.799 94.5775C747.064 99.1288 753.973 105.387 758.524 113.352C763.238 121.316 765.595 130.338 765.595 140.416ZM702.689 165.041C712.117 165.041 719.106 162.928 723.658 158.702C728.209 154.313 730.485 148.218 730.485 140.416C730.485 123.836 721.219 115.546 702.689 115.546H675.625V165.041H702.689Z" fill="black"/>
<path d="M823.965 143.829C828.353 136.677 834.042 131.069 841.032 127.005C848.184 122.942 856.311 120.91 865.414 120.91V156.751H856.393C845.664 156.751 837.537 159.271 832.011 164.31C826.647 169.349 823.965 178.126 823.965 190.642V257.937H789.83V122.861H823.965V143.829Z" fill="black"/>
<path d="M948.385 260.131C935.381 260.131 923.678 257.286 913.275 251.597C902.872 245.746 894.663 237.537 888.649 226.971C882.797 216.406 879.872 204.215 879.872 190.399C879.872 176.582 882.879 164.391 888.893 153.826C895.07 143.26 903.441 135.133 914.006 129.444C924.572 123.592 936.356 120.666 949.36 120.666C962.364 120.666 974.148 123.592 984.714 129.444C995.279 135.133 1003.57 143.26 1009.58 153.826C1015.76 164.391 1018.85 176.582 1018.85 190.399C1018.85 204.215 1015.68 216.406 1009.34 226.971C1003.16 237.537 994.711 245.746 983.982 251.597C973.417 257.286 961.551 260.131 948.385 260.131ZM948.385 230.385C954.562 230.385 960.332 228.922 965.696 225.996C971.223 222.908 975.611 218.356 978.862 212.342C982.113 206.328 983.739 199.013 983.739 190.399C983.739 177.557 980.325 167.723 973.498 160.896C966.834 153.907 958.625 150.412 948.872 150.412C939.12 150.412 930.911 153.907 924.247 160.896C917.745 167.723 914.494 177.557 914.494 190.399C914.494 203.24 917.664 213.155 924.003 220.145C930.505 226.971 938.632 230.385 948.385 230.385Z" fill="black"/>
<path d="M1105.82 150.9H1082.17V257.937H1047.55V150.9H1032.18V122.861H1047.55V116.034C1047.55 99.4539 1052.26 87.2629 1061.69 79.4607C1071.11 71.6585 1085.34 68.0012 1104.36 68.4888V97.2595C1096.07 97.097 1090.29 98.4786 1087.04 101.404C1083.79 104.33 1082.17 109.613 1082.17 117.253V122.861H1105.82V150.9Z" fill="black"/>
<path d="M1145.25 106.768C1139.24 106.768 1134.2 104.899 1130.13 101.161C1126.23 97.2595 1124.28 92.4644 1124.28 86.7753C1124.28 81.0862 1126.23 76.3723 1130.13 72.6338C1134.2 68.7327 1139.24 66.7821 1145.25 66.7821C1151.26 66.7821 1156.22 68.7327 1160.12 72.6338C1164.19 76.3723 1166.22 81.0862 1166.22 86.7753C1166.22 92.4644 1164.19 97.2595 1160.12 101.161C1156.22 104.899 1151.26 106.768 1145.25 106.768ZM1162.07 122.861V257.937H1127.94V122.861H1162.07Z" fill="black"/>
<path d="M1229.93 77.5102V257.937H1195.8V77.5102H1229.93Z" fill="black"/>
<path d="M1389.23 187.473C1389.23 192.349 1388.9 196.738 1388.25 200.639H1289.5C1290.32 210.392 1293.73 218.031 1299.74 223.558C1305.76 229.085 1313.15 231.848 1321.93 231.848C1334.61 231.848 1343.63 226.403 1349 215.512H1385.81C1381.91 228.516 1374.43 239.244 1363.38 247.696C1352.33 255.986 1338.75 260.131 1322.66 260.131C1309.66 260.131 1297.96 257.286 1287.55 251.597C1277.31 245.746 1269.27 237.537 1263.41 226.971C1257.73 216.406 1254.88 204.215 1254.88 190.399C1254.88 176.42 1257.73 164.147 1263.41 153.582C1269.1 143.016 1277.07 134.889 1287.31 129.2C1297.55 123.511 1309.33 120.666 1322.66 120.666C1335.5 120.666 1346.96 123.429 1357.04 128.956C1367.28 134.483 1375.17 142.366 1380.69 152.607C1386.38 162.684 1389.23 174.306 1389.23 187.473ZM1353.87 177.72C1353.71 168.942 1350.54 161.953 1344.36 156.751C1338.19 151.387 1330.63 148.705 1321.69 148.705C1313.24 148.705 1306.08 151.306 1300.23 156.508C1294.54 161.547 1291.05 168.617 1289.75 177.72H1353.87Z" fill="black"/>
<path d="M1448.28 143.829C1452.66 136.677 1458.35 131.069 1465.34 127.005C1472.49 122.942 1480.62 120.91 1489.72 120.91V156.751H1480.7C1469.98 156.751 1461.85 159.271 1456.32 164.31C1450.96 169.349 1448.28 178.126 1448.28 190.642V257.937H1414.14V122.861H1448.28V143.829Z" fill="black"/>
<defs>
<linearGradient id="paint0_linear1" x1="390.256" y1="4.3254e-06" x2="54.8284" y2="335.426" gradientUnits="userSpaceOnUse">
<stop stop-color="#1F00F0"/>
<stop offset="1" stop-color="#BEB5F8"/>
</linearGradient>
<linearGradient id="paint1_linear1" x1="390.256" y1="4.3254e-06" x2="54.8284" y2="335.426" gradientUnits="userSpaceOnUse">
<stop stop-color="#1F00F0"/>
<stop offset="1" stop-color="#BEB5F8"/>
</linearGradient>
<linearGradient id="paint2_linear1" x1="390.256" y1="4.3254e-06" x2="54.8284" y2="335.426" gradientUnits="userSpaceOnUse">
<stop stop-color="#1F00F0"/>
<stop offset="1" stop-color="#BEB5F8"/>
</linearGradient>
<linearGradient id="paint3_linear1" x1="390.256" y1="4.3254e-06" x2="54.8284" y2="335.426" gradientUnits="userSpaceOnUse">
<stop stop-color="#1F00F0"/>
<stop offset="1" stop-color="#BEB5F8"/>
</linearGradient>
</defs>
</svg>
