<svg width="110" height="24" viewBox="0 0 110 24" fill="none" xmlns="http://www.w3.org/2000/svg">
<path d="M6.63776 2.10523C7.72219 2.10523 8.67544 2.32182 9.49751 2.755C10.3196 3.17085 10.9667 3.71665 11.439 4.3924V2.33915H15.1383V16.8419C15.1383 18.1761 14.8672 19.363 14.325 20.4026C13.7828 21.4595 12.9694 22.2912 11.885 22.8977C10.8006 23.5214 9.48876 23.8333 7.94957 23.8333C5.88566 23.8333 4.18905 23.3568 2.85975 22.4038C1.54794 21.4509 0.804577 20.1513 0.629669 18.5053H4.2765C4.4689 19.1637 4.87993 19.6835 5.5096 20.0647C6.15676 20.4632 6.9351 20.6625 7.84462 20.6625C8.91156 20.6625 9.77736 20.3419 10.442 19.7008C11.1067 19.0771 11.439 18.1241 11.439 16.8419V14.6067C10.9667 15.2824 10.3108 15.8456 9.47127 16.2961C8.6492 16.7466 7.7047 16.9718 6.63776 16.9718C5.4134 16.9718 4.29399 16.6599 3.27953 16.0362C2.26506 15.4124 1.46048 14.5374 0.865795 13.4111C0.288598 12.2675 0 10.9593 0 9.48655C0 8.03108 0.288598 6.74021 0.865795 5.61396C1.46048 4.4877 2.25631 3.62135 3.25329 3.0149C4.26776 2.40846 5.39591 2.10523 6.63776 2.10523ZM11.439 9.53853C11.439 8.65485 11.2641 7.90113 10.9143 7.27735C10.5644 6.63625 10.0922 6.1511 9.49751 5.82188C8.90282 5.47534 8.26441 5.30207 7.58226 5.30207C6.90012 5.30207 6.27045 5.46668 5.69326 5.79589C5.11606 6.1251 4.64381 6.61026 4.2765 7.25136C3.92669 7.87513 3.75178 8.6202 3.75178 9.48655C3.75178 10.3529 3.92669 11.1153 4.2765 11.7737C4.64381 12.4148 5.11606 12.9086 5.69326 13.2552C6.28794 13.6017 6.91761 13.775 7.58226 13.775C8.26441 13.775 8.90282 13.6104 9.49751 13.2812C10.0922 12.9346 10.5644 12.4495 10.9143 11.8257C11.2641 11.1846 11.439 10.4222 11.439 9.53853Z" fill="#171B36"/>
<path d="M32.0799 7.84914C32.0799 8.81946 31.8438 9.72913 31.3715 10.5782C30.9168 11.4272 30.1909 12.1116 29.1939 12.6314C28.2144 13.1512 26.9726 13.4111 25.4684 13.4111H22.3987V20.3766H18.7257V2.23519H25.4684C26.8851 2.23519 28.092 2.47777 29.089 2.96292C30.086 3.44808 30.8293 4.11517 31.3191 4.96419C31.8263 5.81322 32.0799 6.77487 32.0799 7.84914ZM25.311 10.4742C26.3254 10.4742 27.0775 10.2489 27.5673 9.79844C28.057 9.33061 28.3019 8.68084 28.3019 7.84914C28.3019 6.08179 27.3049 5.19811 25.311 5.19811H22.3987V10.4742H25.311Z" fill="#171B36"/>
<path d="M38.3608 8.21301C38.8331 7.45062 39.4452 6.85284 40.1973 6.41966C40.9669 5.98649 41.8415 5.7699 42.821 5.7699V9.59051H41.8502C40.6958 9.59051 39.8213 9.85908 39.2266 10.3962C38.6494 10.9334 38.3608 11.869 38.3608 13.2032V20.3766H34.6877V5.97783H38.3608V8.21301Z" fill="#171B36"/>
<path d="M51.7491 20.6105C50.3498 20.6105 49.0905 20.3073 47.9711 19.7008C46.8516 19.0771 45.9684 18.202 45.3212 17.0758C44.6915 15.9495 44.3767 14.65 44.3767 13.1772C44.3767 11.7044 44.7003 10.4049 45.3474 9.27862C46.0121 8.15237 46.9129 7.28602 48.0498 6.67957C49.1867 6.0558 50.4547 5.74391 51.854 5.74391C53.2533 5.74391 54.5214 6.0558 55.6583 6.67957C56.7952 7.28602 57.6872 8.15237 58.3344 9.27862C58.999 10.4049 59.3313 11.7044 59.3313 13.1772C59.3313 14.65 58.9903 15.9495 58.3081 17.0758C57.6435 18.202 56.7339 19.0771 55.5796 19.7008C54.4426 20.3073 53.1658 20.6105 51.7491 20.6105ZM51.7491 17.4397C52.4137 17.4397 53.0346 17.2837 53.6118 16.9718C54.2065 16.6426 54.6788 16.1575 55.0286 15.5164C55.3784 14.8753 55.5533 14.0955 55.5533 13.1772C55.5533 11.8084 55.186 10.7601 54.4514 10.0323C53.7343 9.28729 52.851 8.91476 51.8015 8.91476C50.7521 8.91476 49.8688 9.28729 49.1517 10.0323C48.452 10.7601 48.1022 11.8084 48.1022 13.1772C48.1022 14.546 48.4433 15.603 49.1254 16.3481C49.8251 17.0758 50.6996 17.4397 51.7491 17.4397Z" fill="#171B36"/>
<path d="M68.6897 8.96674H66.1448V20.3766H62.4192V8.96674H60.7663V5.97783H62.4192V5.25009C62.4192 3.48273 62.9264 2.18321 63.9409 1.35151C64.9554 0.519811 66.4858 0.129953 68.5322 0.181934V3.24882C67.6402 3.23149 67.0193 3.37877 66.6695 3.69066C66.3197 4.00254 66.1448 4.56567 66.1448 5.38004V5.97783H68.6897V8.96674Z" fill="#171B36"/>
<path d="M72.9328 4.26245C72.2856 4.26245 71.7434 4.06319 71.3061 3.66467C70.8863 3.24882 70.6764 2.73767 70.6764 2.13123C70.6764 1.52478 70.8863 1.02229 71.3061 0.623773C71.7434 0.207924 72.2856 0 72.9328 0C73.5799 0 74.1134 0.207924 74.5332 0.623773C74.9704 1.02229 75.1891 1.52478 75.1891 2.13123C75.1891 2.73767 74.9704 3.24882 74.5332 3.66467C74.1134 4.06319 73.5799 4.26245 72.9328 4.26245ZM74.743 5.97783V20.3766H71.07V5.97783H74.743Z" fill="#171B36"/>
<path d="M82.0451 1.14358V20.3766H78.372V1.14358H82.0451Z" fill="#171B36"/>
<path d="M99.1858 12.8653C99.1858 13.3851 99.1508 13.853 99.0808 14.2688H88.4552C88.5426 15.3084 88.9099 16.1228 89.5571 16.7119C90.2042 17.301 91.0001 17.5956 91.9446 17.5956C93.3089 17.5956 94.2796 17.0151 94.8568 15.8542H98.8185C98.3987 17.2404 97.5941 18.384 96.4047 19.285C95.2153 20.1687 93.7549 20.6105 92.0233 20.6105C90.624 20.6105 89.3647 20.3073 88.2453 19.7008C87.1433 19.0771 86.2775 18.202 85.6479 17.0758C85.0357 15.9495 84.7296 14.65 84.7296 13.1772C84.7296 11.6871 85.0357 10.3789 85.6479 9.25263C86.2601 8.12638 87.1171 7.26003 88.219 6.65358C89.321 6.04713 90.589 5.74391 92.0233 5.74391C93.4051 5.74391 94.6382 6.03847 95.7226 6.62759C96.8245 7.21671 97.6728 8.05707 98.2675 9.14867C98.8797 10.2229 99.1858 11.4618 99.1858 12.8653ZM95.3815 11.8257C95.364 10.89 95.023 10.145 94.3583 9.59051C93.6937 9.01872 92.8803 8.73282 91.9183 8.73282C91.0088 8.73282 90.2392 9.01006 89.6096 9.56452C88.9974 10.1017 88.6213 10.8554 88.4814 11.8257H95.3815Z" fill="#171B36"/>
<path d="M105.54 8.21301C106.012 7.45062 106.624 6.85284 107.376 6.41966C108.146 5.98649 109.021 5.7699 110 5.7699V9.59051H109.029C107.875 9.59051 107 9.85908 106.406 10.3962C105.828 10.9334 105.54 11.869 105.54 13.2032V20.3766H101.867V5.97783H105.54V8.21301Z" fill="#171B36"/>
</svg>
