<svg width="16" height="16" viewBox="0 0 16 16" fill="none" xmlns="http://www.w3.org/2000/svg">
<path d="M7.1499 7.3345C7.1499 6.92029 7.48569 6.5845 7.8999 6.5845C8.31412 6.5845 8.6499 6.92029 8.6499 7.3345V11.8345C8.6499 12.2487 8.31412 12.5845 7.8999 12.5845C7.48569 12.5845 7.1499 12.2487 7.1499 11.8345V7.3345Z" fill="#171A35"/>
<path d="M7.8999 3.63834C7.48569 3.63834 7.1499 3.97412 7.1499 4.38834C7.1499 4.80255 7.48569 5.13834 7.8999 5.13834C8.31412 5.13834 8.6499 4.80255 8.6499 4.38834C8.6499 3.97412 8.31412 3.63834 7.8999 3.63834Z" fill="#171A35"/>
<path fill-rule="evenodd" clip-rule="evenodd" d="M7.8999 0.599976C3.75777 0.599976 0.399902 3.95784 0.399902 8.09998C0.399902 12.2421 3.75777 15.6 7.8999 15.6C12.042 15.6 15.3999 12.2421 15.3999 8.09998C15.3999 3.95784 12.042 0.599976 7.8999 0.599976ZM1.8999 8.09998C1.8999 11.4137 4.58619 14.1 7.8999 14.1C11.2136 14.1 13.8999 11.4137 13.8999 8.09998C13.8999 4.78627 11.2136 2.09998 7.8999 2.09998C4.58619 2.09998 1.8999 4.78627 1.8999 8.09998Z" fill="#171A35"/>
</svg>
