<svg width="100" height="100" viewBox="0 0 161 161" fill="none" xmlns="http://www.w3.org/2000/svg">
<circle opacity="0.5" cx="80.5" cy="80.5" r="59.5" stroke="#101964" stroke-width="2" stroke-linecap="round" stroke-linejoin="round" stroke-dasharray="4 8"/>
<path d="M94.5821 67.7212C94.5821 68.7938 93.6691 69.6633 92.5429 69.6633C91.4167 69.6633 90.5037 68.7938 90.5037 67.7212C90.5037 66.6486 91.4167 65.7791 92.5429 65.7791C93.6691 65.7791 94.5821 66.6486 94.5821 67.7212Z" fill="url(#paint0_linear_purple)"/>
<path d="M64.1373 66.7967C63.5741 66.7967 63.1176 67.2532 63.1176 67.8163C63.1176 68.3794 63.5741 68.8359 64.1373 68.8359H75.3529C75.9161 68.8359 76.3726 68.3794 76.3726 67.8163C76.3726 67.2532 75.9161 66.7967 75.3529 66.7967H64.1373Z" fill="url(#paint1_linear_purple)"/>
<path fill-rule="evenodd" clip-rule="evenodd" d="M59.5882 60C58.9452 60 58.3042 60.2201 57.8113 60.6473C57.3138 61.0785 57 61.6972 57 62.3791V73.2549C57 73.7596 57.1719 74.2297 57.4629 74.6147C57.1719 74.9998 57 75.4698 57 75.9745V86.8503C57 87.3546 57.1716 87.8243 57.4621 88.2091C57.1716 88.594 57 89.0637 57 89.568V100.444C57 101.126 57.3138 101.744 57.8113 102.176C58.3042 102.603 58.9452 102.823 59.5882 102.823H79.2239C79.0064 102.161 78.83 101.48 78.6979 100.784H59.5882C59.3992 100.784 59.2423 100.717 59.1468 100.635C59.056 100.556 59.0392 100.483 59.0392 100.444V89.568C59.0392 89.5287 59.056 89.4559 59.1468 89.3772C59.2353 89.3005 59.3767 89.2378 59.5475 89.2291L59.5882 89.2294H80.796C81.235 88.5112 81.728 87.8296 82.2693 87.1902H69.0525L69.0343 87.1894L69 87.1889H59.5882L59.5475 87.1892C59.3767 87.1805 59.2353 87.1178 59.1468 87.0411C59.056 86.9624 59.0392 86.8896 59.0392 86.8503V75.9745C59.0392 75.9353 59.056 75.8625 59.1468 75.7837C59.2423 75.701 59.3992 75.6347 59.5882 75.6347H69L69.0233 75.6344L69.0371 75.634H87.7864C87.7987 75.6344 87.8111 75.6347 87.8235 75.6347H97.2353C97.4243 75.6347 97.5813 75.701 97.6767 75.7837C97.7676 75.8625 97.7843 75.9353 97.7843 75.9745V81.6981C98.4807 81.8302 99.1615 82.0065 99.8235 82.2241V75.9745C99.8235 75.4698 99.6517 74.9998 99.3606 74.6147C99.6517 74.2297 99.8235 73.7596 99.8235 73.2549V62.3791C99.8235 61.6972 99.5098 61.0785 99.0123 60.6473C98.5193 60.2201 97.8784 60 97.2353 60H59.5882ZM59.1468 62.1883C59.2423 62.1056 59.3992 62.0392 59.5882 62.0392H97.2353C97.4243 62.0392 97.5813 62.1056 97.6767 62.1883C97.7676 62.267 97.7843 62.3399 97.7843 62.3791V73.2549C97.7843 73.2941 97.7676 73.367 97.6767 73.4457C97.5813 73.5284 97.4243 73.5948 97.2353 73.5948H59.5882C59.3992 73.5948 59.2423 73.5284 59.1468 73.4457C59.056 73.367 59.0392 73.2941 59.0392 73.2549V62.3791C59.0392 62.3399 59.056 62.267 59.1468 62.1883Z" fill="url(#paint2_linear_purple)"/>
<path d="M94.5821 81.3167C94.5821 81.3488 94.5813 81.3807 94.5797 81.4124C93.2093 81.4244 91.8793 81.6054 90.6094 81.9355C90.5408 81.7411 90.5037 81.533 90.5037 81.3167C90.5037 80.2441 91.4167 79.3745 92.5429 79.3745C93.6691 79.3745 94.5821 80.2441 94.5821 81.3167Z" fill="url(#paint3_linear_purple)"/>
<path d="M63.1176 81.4118C63.1176 80.8487 63.5741 80.3922 64.1373 80.3922H75.3529C75.9161 80.3922 76.3726 80.8487 76.3726 81.4118C76.3726 81.9749 75.9161 82.4314 75.3529 82.4314H64.1373C63.5741 82.4314 63.1176 81.9749 63.1176 81.4118Z" fill="url(#paint4_linear_purple)"/>
<path d="M63.1176 95.0072C63.1176 94.4441 63.5741 93.9876 64.1373 93.9876H75.3529C75.9161 93.9876 76.3726 94.4441 76.3726 95.0072C76.3726 95.5703 75.9161 96.0268 75.3529 96.0268H64.1373C63.5741 96.0268 63.1176 95.5703 63.1176 95.0072Z" fill="url(#paint5_linear_purple)"/>
<path d="M92.8431 104C92.8431 105.04 93.6859 105.882 94.7255 105.882C95.7651 105.882 96.6078 105.04 96.6078 104V99.6078H101C102.04 99.6078 102.882 98.7651 102.882 97.7255C102.882 96.6859 102.04 95.8431 101 95.8431H96.6078V91.451C96.6078 90.4114 95.7651 89.5686 94.7255 89.5686C93.6859 89.5686 92.8431 90.4114 92.8431 91.451V95.8431H88.451C87.4114 95.8431 86.5686 96.6859 86.5686 97.7255C86.5686 98.7651 87.4114 99.6078 88.451 99.6078H92.8431V104Z" fill="url(#paint6_linear_purple)"/>
<path fill-rule="evenodd" clip-rule="evenodd" d="M94.7255 112C102.609 112 109 105.609 109 97.7255C109 89.8419 102.609 83.451 94.7255 83.451C86.8419 83.451 80.451 89.8419 80.451 97.7255C80.451 105.609 86.8419 112 94.7255 112ZM94.7255 109.961C101.483 109.961 106.961 104.483 106.961 97.7255C106.961 90.9681 101.483 85.4902 94.7255 85.4902C87.9681 85.4902 82.4902 90.9681 82.4902 97.7255C82.4902 104.483 87.9681 109.961 94.7255 109.961Z" fill="url(#paint7_linear_purple)"/>
<defs>
<linearGradient id="paint0_linear_purple" x1="114.488" y1="60" x2="65.0767" y2="109.411" gradientUnits="userSpaceOnUse">
<stop stop-color="#3F22FE"/>
<stop offset="1" stop-color="#BEB5F8"/>
</linearGradient>
<linearGradient id="paint1_linear_purple" x1="114.488" y1="60" x2="65.0767" y2="109.411" gradientUnits="userSpaceOnUse">
<stop stop-color="#3F22FE"/>
<stop offset="1" stop-color="#BEB5F8"/>
</linearGradient>
<linearGradient id="paint2_linear_purple" x1="114.488" y1="60" x2="65.0767" y2="109.411" gradientUnits="userSpaceOnUse">
<stop stop-color="#3F22FE"/>
<stop offset="1" stop-color="#BEB5F8"/>
</linearGradient>
<linearGradient id="paint3_linear_purple" x1="114.488" y1="60" x2="65.0767" y2="109.411" gradientUnits="userSpaceOnUse">
<stop stop-color="#3F22FE"/>
<stop offset="1" stop-color="#BEB5F8"/>
</linearGradient>
<linearGradient id="paint4_linear_purple" x1="114.488" y1="60" x2="65.0767" y2="109.411" gradientUnits="userSpaceOnUse">
<stop stop-color="#3F22FE"/>
<stop offset="1" stop-color="#BEB5F8"/>
</linearGradient>
<linearGradient id="paint5_linear_purple" x1="114.488" y1="60" x2="65.0767" y2="109.411" gradientUnits="userSpaceOnUse">
<stop stop-color="#3F22FE"/>
<stop offset="1" stop-color="#BEB5F8"/>
</linearGradient>
<linearGradient id="paint6_linear_purple" x1="114.488" y1="60" x2="65.0767" y2="109.411" gradientUnits="userSpaceOnUse">
<stop stop-color="#3F22FE"/>
<stop offset="1" stop-color="#BEB5F8"/>
</linearGradient>
<linearGradient id="paint7_linear_purple" x1="114.488" y1="60" x2="65.0767" y2="109.411" gradientUnits="userSpaceOnUse">
<stop stop-color="#3F22FE"/>
<stop offset="1" stop-color="#BEB5F8"/>
</linearGradient>
</defs>
</svg>
