<svg width="317" height="358" viewBox="0 0 317 358" fill="none" xmlns="http://www.w3.org/2000/svg">
<path opacity="0.3" d="M22.3813 0L294 153.5L293.951 357.415L22.332 203.915L22.3813 0Z" fill="url(#paint0_linear_2847_1627)"/>
<path opacity="0.3" d="M45.3518 90.824L171.31 163.917V176.754L45.3518 103.661V90.824Z" fill="url(#paint1_linear_2847_1627)"/>
<path opacity="0.3" d="M64.9473 160.22L216.422 248.065V260.902L64.9473 173.057V160.22Z" fill="url(#paint2_linear_2847_1627)"/>
<path opacity="0.3" d="M45.3518 105.337L129.706 154.317V167.153L45.3518 118.173V105.337Z" fill="url(#paint3_linear_2847_1627)"/>
<path opacity="0.3" d="M45.4631 163.917L109.392 201.038V213.874L45.4631 176.754V163.917Z" fill="url(#paint4_linear_2847_1627)"/>
<path opacity="0.3" d="M45.3516 119.849L101.588 152.502V165.339L45.3516 132.686V119.849Z" fill="url(#paint5_linear_2847_1627)"/>
<path opacity="0.3" d="M45.3518 134.362L79.8192 154.179V167.015L45.3518 147.198V134.362Z" fill="url(#paint6_linear_2847_1627)"/>
<path opacity="0.3" d="M45.3518 148.875L62.5855 158.714V171.551L45.3518 161.711V148.875Z" fill="url(#paint7_linear_2847_1627)"/>
<path opacity="0.3" d="M45.4631 179.072L80.5894 199.547V212.384L45.4631 191.908V179.072Z" fill="url(#paint8_linear_2847_1627)"/>
<path opacity="0.3" d="M9.07056 49.271L229.481 177.025V189.862L9.07056 62.1075V49.271Z" fill="url(#paint9_linear_2847_1627)"/>
<path opacity="0.3" d="M0 50.1782L171.969 150.08V162.917L0 63.0148V50.1782Z" fill="url(#paint10_linear_2847_1627)"/>
<path opacity="0.3" d="M22.332 0L315 164.712V200.5L22.332 35.7881V0Z" fill="url(#paint11_linear_2847_1627)"/>
<path opacity="0.2" d="M53.0151 0.852539L310 148V183.788L53.0151 36.6406V0.852539Z" fill="url(#paint12_linear_2847_1627)"/>
<path opacity="0.2" d="M59.8331 39.4476C59.8331 44.9051 56.5679 47.4587 52.5885 45.2056C48.6091 42.9524 45.344 36.6937 45.344 31.2862C45.344 25.8787 48.6091 23.2751 52.5885 25.5282C56.5679 27.7813 59.8331 34.04 59.8331 39.4476Z" fill="white"/>
<path d="M131 155L166 175.663V188.5L131 167.837V155Z" fill="url(#paint13_linear_2847_1627)"/>
<path d="M131 169L148.5 179.332V192.168L131 181.837V169Z" fill="url(#paint14_linear_2847_1627)"/>
<path d="M131 183L139.75 188.166V201.002L131 195.837V183Z" fill="url(#paint15_linear_2847_1627)"/>
<path opacity="0.3" d="M303.459 107.501L215.557 56.7507C208.622 52.7467 203 55.9926 203 64.0007L203 165.501C203 173.509 208.622 183.247 215.557 187.251L303.459 238.001C310.394 242.005 316.016 238.759 316.016 230.751L316.016 129.251C316.016 121.243 310.394 111.505 303.459 107.501Z" fill="url(#paint16_linear_2847_1627)"/>
<path d="M296.459 111.501L208.557 60.751C201.622 56.7469 196 59.9928 196 68.001L196 169.501C196 177.509 201.622 187.247 208.557 191.251L296.459 242.001C303.394 246.005 309.016 242.759 309.016 234.751L309.016 133.251C309.016 125.243 303.394 115.505 296.459 111.501Z" fill="url(#paint17_linear_2847_1627)"/>
<path d="M296.459 111.501L208.557 60.751C201.622 56.7469 196 59.9928 196 68.001L196 169.501C196 177.509 201.622 187.247 208.557 191.251L296.459 242.001C303.394 246.005 309.016 242.759 309.016 234.751L309.016 133.251C309.016 125.243 303.394 115.505 296.459 111.501Z" fill="url(#paint18_linear_2847_1627)"/>
<path opacity="0.3" d="M277.623 85.125L277.623 114.125" stroke="url(#paint19_linear_2847_1627)" stroke-width="8" stroke-linecap="round"/>
<path opacity="0.2" d="M227.394 56.125L227.394 85.125" stroke="url(#paint20_linear_2847_1627)" stroke-width="8" stroke-linecap="round"/>
<path opacity="0.2" d="M196 94L309.164 158.625" stroke="url(#paint21_linear_2847_1627)" stroke-width="8"/>
<path opacity="0.3" d="M232 136.134C232.819 135.772 233.711 135.494 234.674 135.3C235.662 135.119 236.722 135.077 237.854 135.174C238.987 135.272 240.215 135.55 241.54 136.009C242.865 136.44 244.299 137.101 245.841 137.991C247.937 139.201 249.84 140.634 251.551 142.289C253.285 143.958 254.767 145.773 255.996 147.735C257.224 149.668 258.176 151.706 258.85 153.848C259.525 155.99 259.862 158.146 259.862 160.316C259.862 162.43 259.597 164.113 259.067 165.365C258.537 166.589 257.863 167.535 257.044 168.202C256.248 168.884 255.381 169.371 254.442 169.663C253.502 169.955 252.611 170.233 251.767 170.497C250.924 170.734 250.189 171.033 249.563 171.395C248.961 171.742 248.599 172.326 248.479 173.147L247.648 178.76L241.54 175.234L240.926 168.077C240.902 167.924 240.89 167.806 240.89 167.722C240.89 167.611 240.89 167.486 240.89 167.347C240.89 166.123 241.155 165.219 241.685 164.635C242.215 164.023 242.877 163.557 243.673 163.237C244.468 162.889 245.323 162.604 246.238 162.381C247.154 162.159 248.009 161.846 248.804 161.442C249.599 161.011 250.262 160.392 250.792 159.585C251.322 158.779 251.587 157.624 251.587 156.122C251.587 155.12 251.418 154.133 251.081 153.159C250.768 152.172 250.322 151.233 249.744 150.343C249.165 149.425 248.467 148.576 247.648 147.797C246.853 147.032 245.985 146.378 245.046 145.836C243.673 145.043 242.504 144.549 241.54 144.355C240.601 144.146 239.794 144.069 239.119 144.125C238.469 144.167 237.915 144.236 237.457 144.334C236.999 144.403 236.59 144.334 236.228 144.125C235.361 143.624 234.734 142.845 234.349 141.788L232 136.134ZM238.83 189.275C238.83 188.413 238.963 187.669 239.228 187.043C239.517 186.431 239.902 185.986 240.384 185.707C240.89 185.443 241.48 185.339 242.155 185.394C242.829 185.45 243.552 185.7 244.323 186.146C245.07 186.577 245.781 187.154 246.455 187.877C247.13 188.601 247.708 189.379 248.19 190.214C248.672 191.049 249.057 191.939 249.346 192.885C249.635 193.831 249.78 194.735 249.78 195.597C249.78 196.487 249.635 197.238 249.346 197.85C249.057 198.435 248.672 198.866 248.19 199.144C247.708 199.422 247.13 199.519 246.455 199.436C245.781 199.38 245.07 199.137 244.323 198.706C243.552 198.261 242.829 197.676 242.155 196.953C241.48 196.258 240.89 195.486 240.384 194.637C239.902 193.803 239.517 192.926 239.228 192.008C238.963 191.076 238.83 190.165 238.83 189.275Z" fill="url(#paint22_linear_2847_1627)"/>
<path d="M227 138.134C227.819 137.772 228.711 137.494 229.674 137.3C230.662 137.119 231.722 137.077 232.854 137.174C233.987 137.272 235.215 137.55 236.54 138.009C237.865 138.44 239.299 139.101 240.841 139.991C242.937 141.201 244.84 142.634 246.551 144.289C248.285 145.958 249.767 147.773 250.996 149.735C252.224 151.668 253.176 153.706 253.85 155.848C254.525 157.99 254.862 160.146 254.862 162.316C254.862 164.43 254.597 166.113 254.067 167.365C253.537 168.589 252.863 169.535 252.044 170.202C251.248 170.884 250.381 171.371 249.442 171.663C248.502 171.955 247.611 172.233 246.767 172.497C245.924 172.734 245.189 173.033 244.563 173.395C243.961 173.742 243.599 174.326 243.479 175.147L242.648 180.76L236.54 177.234L235.926 170.077C235.902 169.924 235.89 169.806 235.89 169.722C235.89 169.611 235.89 169.486 235.89 169.347C235.89 168.123 236.155 167.219 236.685 166.635C237.215 166.023 237.877 165.557 238.673 165.237C239.468 164.889 240.323 164.604 241.238 164.381C242.154 164.159 243.009 163.846 243.804 163.442C244.599 163.011 245.262 162.392 245.792 161.585C246.322 160.779 246.587 159.624 246.587 158.122C246.587 157.12 246.418 156.133 246.081 155.159C245.768 154.172 245.322 153.233 244.744 152.343C244.165 151.425 243.467 150.576 242.648 149.797C241.853 149.032 240.985 148.378 240.046 147.836C238.673 147.043 237.504 146.549 236.54 146.355C235.601 146.146 234.794 146.069 234.119 146.125C233.469 146.167 232.915 146.236 232.457 146.334C231.999 146.403 231.59 146.334 231.228 146.125C230.361 145.624 229.734 144.845 229.349 143.788L227 138.134ZM233.83 191.275C233.83 190.413 233.963 189.669 234.228 189.043C234.517 188.431 234.902 187.986 235.384 187.707C235.89 187.443 236.48 187.339 237.155 187.394C237.829 187.45 238.552 187.7 239.323 188.146C240.07 188.577 240.781 189.154 241.455 189.877C242.13 190.601 242.708 191.379 243.19 192.214C243.672 193.049 244.057 193.939 244.346 194.885C244.635 195.831 244.78 196.735 244.78 197.597C244.78 198.487 244.635 199.238 244.346 199.85C244.057 200.435 243.672 200.866 243.19 201.144C242.708 201.422 242.13 201.519 241.455 201.436C240.781 201.38 240.07 201.137 239.323 200.706C238.552 200.261 237.829 199.676 237.155 198.953C236.48 198.258 235.89 197.486 235.384 196.637C234.902 195.803 234.517 194.926 234.228 194.008C233.963 193.076 233.83 192.165 233.83 191.275Z" fill="url(#paint23_linear_2847_1627)"/>
<defs>
<linearGradient id="paint0_linear_2847_1627" x1="192" y1="-253.5" x2="101.827" y2="248.813" gradientUnits="userSpaceOnUse">
<stop stop-color="#212E99"/>
<stop offset="1" stop-color="#212E99" stop-opacity="0"/>
</linearGradient>
<linearGradient id="paint1_linear_2847_1627" x1="105.67" y1="45.9256" x2="217.947" y2="265.466" gradientUnits="userSpaceOnUse">
<stop stop-color="#212E99"/>
<stop offset="1" stop-color="#212E99" stop-opacity="0"/>
</linearGradient>
<linearGradient id="paint2_linear_2847_1627" x1="-71.5619" y1="28.7" x2="239.499" y2="330.112" gradientUnits="userSpaceOnUse">
<stop stop-color="#212E99"/>
<stop offset="1" stop-color="#212E99" stop-opacity="0"/>
</linearGradient>
<linearGradient id="paint3_linear_2847_1627" x1="105.67" y1="60.4383" x2="217.947" y2="279.979" gradientUnits="userSpaceOnUse">
<stop stop-color="#212E99"/>
<stop offset="1" stop-color="#212E99" stop-opacity="0"/>
</linearGradient>
<linearGradient id="paint4_linear_2847_1627" x1="-125.077" y1="18.7227" x2="199.625" y2="321.623" gradientUnits="userSpaceOnUse">
<stop stop-color="#212E99"/>
<stop offset="1" stop-color="#212E99" stop-opacity="0"/>
</linearGradient>
<linearGradient id="paint5_linear_2847_1627" x1="105.67" y1="74.9508" x2="217.947" y2="294.492" gradientUnits="userSpaceOnUse">
<stop stop-color="#212E99"/>
<stop offset="1" stop-color="#212E99" stop-opacity="0"/>
</linearGradient>
<linearGradient id="paint6_linear_2847_1627" x1="105.67" y1="89.4635" x2="217.947" y2="309.004" gradientUnits="userSpaceOnUse">
<stop stop-color="#212E99"/>
<stop offset="1" stop-color="#212E99" stop-opacity="0"/>
</linearGradient>
<linearGradient id="paint7_linear_2847_1627" x1="105.67" y1="103.976" x2="217.947" y2="323.517" gradientUnits="userSpaceOnUse">
<stop stop-color="#212E99"/>
<stop offset="1" stop-color="#212E99" stop-opacity="0"/>
</linearGradient>
<linearGradient id="paint8_linear_2847_1627" x1="-147.984" y1="34.1509" x2="220.977" y2="348.239" gradientUnits="userSpaceOnUse">
<stop stop-color="#212E99"/>
<stop offset="1" stop-color="#212E99" stop-opacity="0"/>
</linearGradient>
<linearGradient id="paint9_linear_2847_1627" x1="139.648" y1="-26.1848" x2="122.502" y2="119.881" gradientUnits="userSpaceOnUse">
<stop stop-color="#212E99"/>
<stop offset="1" stop-color="#212E99" stop-opacity="0"/>
</linearGradient>
<linearGradient id="paint10_linear_2847_1627" x1="157.605" y1="-51.9351" x2="391.63" y2="473.789" gradientUnits="userSpaceOnUse">
<stop stop-color="#212E99"/>
<stop offset="1" stop-color="#212E99" stop-opacity="0"/>
</linearGradient>
<linearGradient id="paint11_linear_2847_1627" x1="222.788" y1="-123.965" x2="192.701" y2="115.53" gradientUnits="userSpaceOnUse">
<stop stop-color="#212E99"/>
<stop offset="1" stop-color="#212E99" stop-opacity="0"/>
</linearGradient>
<linearGradient id="paint12_linear_2847_1627" x1="249.044" y1="-95.8835" x2="249.808" y2="210.939" gradientUnits="userSpaceOnUse">
<stop stop-color="#212E99"/>
<stop offset="1" stop-color="#212E99" stop-opacity="0"/>
</linearGradient>
<linearGradient id="paint13_linear_2847_1627" x1="134.5" y1="163" x2="181" y2="189" gradientUnits="userSpaceOnUse">
<stop stop-color="#FCBB0B"/>
<stop offset="1" stop-color="#F3851C"/>
</linearGradient>
<linearGradient id="paint14_linear_2847_1627" x1="134.5" y1="177" x2="181" y2="203" gradientUnits="userSpaceOnUse">
<stop stop-color="#FCBB0B"/>
<stop offset="1" stop-color="#F3851C"/>
</linearGradient>
<linearGradient id="paint15_linear_2847_1627" x1="134.5" y1="191" x2="181" y2="217" gradientUnits="userSpaceOnUse">
<stop stop-color="#FCBB0B"/>
<stop offset="1" stop-color="#F3851C"/>
</linearGradient>
<linearGradient id="paint16_linear_2847_1627" x1="269.954" y1="18.1168" x2="203.098" y2="102.76" gradientUnits="userSpaceOnUse">
<stop stop-color="#212E99"/>
<stop offset="1" stop-color="#212E99" stop-opacity="0"/>
</linearGradient>
<linearGradient id="paint17_linear_2847_1627" x1="230.5" y1="61.5" x2="204.308" y2="133.795" gradientUnits="userSpaceOnUse">
<stop stop-color="#B8BDDF"/>
<stop offset="1" stop-color="#EDF0F7"/>
</linearGradient>
<linearGradient id="paint18_linear_2847_1627" x1="128.5" y1="157.5" x2="217.835" y2="210.393" gradientUnits="userSpaceOnUse">
<stop stop-color="#B8BDDF"/>
<stop offset="1" stop-color="#EDF0F7"/>
</linearGradient>
<linearGradient id="paint19_linear_2847_1627" x1="279.164" y1="81.625" x2="272.164" y2="114.625" gradientUnits="userSpaceOnUse">
<stop stop-color="#212E99"/>
<stop offset="1" stop-color="#212E99" stop-opacity="0"/>
</linearGradient>
<linearGradient id="paint20_linear_2847_1627" x1="228.935" y1="52.625" x2="221.935" y2="85.625" gradientUnits="userSpaceOnUse">
<stop stop-color="#212E99"/>
<stop offset="1" stop-color="#212E99" stop-opacity="0"/>
</linearGradient>
<linearGradient id="paint21_linear_2847_1627" x1="201.165" y1="93.1247" x2="288.078" y2="206.208" gradientUnits="userSpaceOnUse">
<stop stop-color="#212E99"/>
<stop offset="1" stop-color="#212E99" stop-opacity="0"/>
</linearGradient>
<linearGradient id="paint22_linear_2847_1627" x1="248.506" y1="106.474" x2="194.327" y2="158.363" gradientUnits="userSpaceOnUse">
<stop stop-color="#212E99"/>
<stop offset="1" stop-color="#212E99" stop-opacity="0"/>
</linearGradient>
<linearGradient id="paint23_linear_2847_1627" x1="70.5" y1="80.5" x2="108.009" y2="248.445" gradientUnits="userSpaceOnUse">
<stop stop-color="#212E99"/>
<stop offset="1" stop-color="#EDF0F7"/>
</linearGradient>
</defs>
</svg>
