<svg width="18" height="19" viewBox="0 0 18 19" fill="none" xmlns="http://www.w3.org/2000/svg">
<path fill-rule="evenodd" clip-rule="evenodd" d="M11.0645 2.94816C11.4369 1.55271 12.7037 0.503664 14.2244 0.503665C16.0411 0.503665 17.4954 2.00075 17.4954 3.79704C17.4954 5.59333 16.0411 7.09042 14.2244 7.09042C12.7045 7.09042 11.4383 6.04249 11.0651 4.64816L6.99021 4.64816C5.90733 4.64816 4.99142 5.36299 4.6886 6.34652C6.03404 6.76174 7.00427 8.02932 7.00427 9.49651C7.00427 10.9642 6.03335 12.2322 4.68717 12.6469C4.98853 13.6329 5.90562 14.35 6.9902 14.35L11.0653 14.35C11.4386 12.9559 12.7047 11.9082 14.2244 11.9082C16.0411 11.9082 17.4954 13.4053 17.4954 15.2016C17.4954 16.9979 16.0411 18.495 14.2244 18.495C12.7035 18.495 11.4366 17.4457 11.0644 16.05L6.9902 16.05C4.97856 16.05 3.30464 14.604 2.95115 12.6947C1.5166 12.3384 0.462339 11.0259 0.46234 9.49651C0.46234 7.96675 1.51709 6.65399 2.95215 6.2981C3.30777 4.39146 4.98044 2.94816 6.99021 2.94816L11.0645 2.94816ZM14.2244 2.20366C13.367 2.20366 12.6535 2.9192 12.6535 3.79704C12.6535 4.67488 13.367 5.39042 14.2244 5.39042C15.0819 5.39042 15.7954 4.67488 15.7954 3.79704C15.7954 2.91921 15.0819 2.20366 14.2244 2.20366ZM3.7333 7.90313C2.87584 7.90313 2.16234 8.61867 2.16234 9.49651C2.16234 10.3743 2.87584 11.0899 3.7333 11.0899C4.59077 11.0899 5.30427 10.3743 5.30427 9.49651C5.30427 8.61867 4.59077 7.90313 3.7333 7.90313ZM12.6535 15.2016C12.6535 14.3237 13.367 13.6082 14.2244 13.6082C15.0819 13.6082 15.7954 14.3237 15.7954 15.2016C15.7954 16.0794 15.0819 16.795 14.2244 16.795C13.367 16.795 12.6535 16.0794 12.6535 15.2016Z" fill="black"/>
</svg>
