<svg width="118" height="67" viewBox="0 0 118 67" fill="none" xmlns="http://www.w3.org/2000/svg">
<path d="M92.6513 64.5892H5.78531V62.4305H92.6513C94.7182 62.4305 96.7004 61.6094 98.1618 60.148C99.6233 58.6865 100.444 56.7043 100.444 54.6375C100.444 52.5706 99.6233 50.5884 98.1618 49.127C96.7004 47.6655 94.7182 46.8444 92.6513 46.8444H55.3701C53.3488 46.8509 51.3714 46.256 49.6891 45.1355C48.0069 44.015 46.696 42.4194 45.923 40.5518C45.1501 38.6842 44.95 36.6289 45.3483 34.6473C45.7467 32.6657 46.7253 30.8474 48.1599 29.4235C49.0927 28.4494 50.2114 27.6724 51.4499 27.1384C52.6884 26.6045 54.0214 26.3244 55.3701 26.3149H101.437V28.4737H55.3917C54.3316 28.4576 53.2794 28.658 52.2995 29.0626C51.3196 29.4672 50.4325 30.0674 49.6926 30.8267C48.5656 31.9515 47.7975 33.3852 47.4852 34.9466C47.1729 36.5079 47.3306 38.1268 47.9382 39.5986C48.5459 41.0704 49.5762 42.3289 50.8991 43.2152C52.2219 44.1015 53.7778 44.5756 55.3701 44.5778H92.6513C95.2907 44.5778 97.822 45.6263 99.6883 47.4926C101.555 49.3589 102.603 51.8902 102.603 54.5295C102.603 57.1689 101.555 59.7002 99.6883 61.5665C97.822 63.4328 95.2907 64.4813 92.6513 64.4813V64.5892ZM2.63356 60.8546C2.11513 60.8503 1.60716 61.0004 1.17431 61.2858C0.74147 61.5712 0.403338 61.9789 0.202966 62.4571C0.00259529 62.9352 -0.0509495 63.4622 0.0491483 63.9709C0.149246 64.4796 0.39846 64.947 0.765058 65.3136C1.13166 65.6802 1.59906 65.9294 2.10775 66.0295C2.61644 66.1296 3.14342 66.076 3.62158 65.8757C4.09974 65.6753 4.50746 65.3372 4.79283 64.9043C5.0782 64.4715 5.2283 63.9635 5.22404 63.4451C5.2184 62.7598 4.94366 62.1042 4.45907 61.6196C3.97448 61.135 3.31886 60.8602 2.63356 60.8546ZM117.304 7.68508C117.304 12.0025 109.619 22.6667 109.619 22.6667C109.619 22.6667 101.934 11.873 101.934 7.68508C101.934 5.64687 102.744 3.69214 104.185 2.25091C105.626 0.809674 107.581 0 109.619 0C111.657 0 113.612 0.809674 115.053 2.25091C116.494 3.69214 117.304 5.64687 117.304 7.68508ZM112.231 4.72762C111.716 4.20883 111.058 3.85474 110.341 3.71025C109.625 3.56577 108.881 3.63739 108.205 3.91604C107.529 4.19469 106.951 4.66781 106.544 5.27541C106.138 5.88301 105.92 6.59771 105.92 7.32889C105.92 8.06006 106.138 8.77477 106.544 9.38237C106.951 9.98997 107.529 10.4631 108.205 10.7417C108.881 11.0204 109.625 11.092 110.341 10.9475C111.058 10.803 111.716 10.4489 112.231 9.93016C112.918 9.23862 113.303 8.30353 113.303 7.32889C113.303 6.35424 112.918 5.41915 112.231 4.72762ZM109.619 25.4514C106.295 25.4514 103.618 26.3797 103.618 27.6102C103.618 28.8406 106.295 29.7689 109.619 29.7689C112.943 29.7689 115.62 28.8406 115.62 27.6102C115.62 26.3797 112.943 25.4083 109.619 25.4083V25.4514Z" fill="#EE9868"/>
</svg>
