<svg width="14" height="14" viewBox="0 0 14 14" fill="none" xmlns="http://www.w3.org/2000/svg">
<path d="M7.00014 4.36363C7.33784 4.36363 7.6116 4.64708 7.6116 4.99674V7.52917C7.6116 7.87883 7.33784 8.16228 7.00014 8.16228C6.66244 8.16228 6.38868 7.87883 6.38868 7.52917V4.99674C6.38868 4.64708 6.66244 4.36363 7.00014 4.36363Z" fill="#FF4F4F"/>
<path d="M7.00014 9.4285C6.66244 9.4285 6.38868 9.71196 6.38868 10.0616C6.38868 10.4113 6.66244 10.6947 7.00014 10.6947H7.00625C7.34395 10.6947 7.61771 10.4113 7.61771 10.0616C7.61771 9.71196 7.34395 9.4285 7.00625 9.4285H7.00014Z" fill="#FF4F4F"/>
<path fill-rule="evenodd" clip-rule="evenodd" d="M6.10006 0.744219C6.37478 0.584072 6.68473 0.499939 7 0.499939C7.31527 0.499939 7.62522 0.584072 7.89994 0.744219C8.17466 0.904366 8.40489 1.13512 8.56839 1.41422L8.57016 1.41723L13.7492 10.3694L13.7542 10.3781C13.9143 10.6653 13.9991 10.991 14 11.3226C14.0009 11.6542 13.9179 11.9803 13.7593 12.2685C13.6007 12.5566 13.372 12.7967 13.0959 12.9649C12.8198 13.1331 12.5061 13.2235 12.1858 13.2271L12.1791 13.2272L1.81422 13.2272C1.49393 13.2235 1.18015 13.1331 0.904098 12.9649C0.62804 12.7967 0.399327 12.5566 0.240712 12.2685C0.0820974 11.9803 -0.00088963 11.6542 7.19237e-06 11.3226C0.000904051 10.991 0.0856538 10.6653 0.245824 10.3781L0.250791 10.3694L5.42985 1.41723L5.16485 1.87531L5.43161 1.41422C5.59511 1.13512 5.82534 0.904366 6.10006 0.744219ZM6.47794 2.06966L1.30284 11.015C1.25076 11.1098 1.22322 11.217 1.22292 11.3261C1.22262 11.4367 1.25028 11.5454 1.30316 11.6414C1.35603 11.7375 1.43227 11.8175 1.52428 11.8736C1.6155 11.9291 1.71907 11.9592 1.82485 11.961H12.1751C12.2809 11.9592 12.3845 11.9291 12.4757 11.8736C12.5677 11.8175 12.644 11.7375 12.6968 11.6414C12.7497 11.5454 12.7774 11.4367 12.7771 11.3261C12.7768 11.217 12.7492 11.1098 12.6972 11.015L7.5228 2.07092L7.52206 2.06966C7.4676 1.97719 7.39114 1.90073 7.29998 1.84758C7.20841 1.7942 7.10509 1.76616 7 1.76616C6.89491 1.76616 6.79159 1.7942 6.70002 1.84758C6.60886 1.90073 6.5324 1.97719 6.47794 2.06966Z" fill="#FF4F4F"/>
</svg>
