<svg width="496" height="202" viewBox="0 0 496 202" fill="none" xmlns="http://www.w3.org/2000/svg">
<g clip-path="url(#clip0)">
<rect width="496" height="244" fill="#1D2443"/>
<mask id="mask0" mask-type="alpha" maskUnits="userSpaceOnUse" x="0" y="0" width="496" height="244">
<rect width="496" height="244" fill="#1D2443"/>
</mask>
<g mask="url(#mask0)">
<path opacity="0.15" d="M129.24 29.064L178.435 59.0318L178.407 183.306L129.211 153.338L129.24 29.064Z" fill="url(#paint0_linear)"/>
<path d="M120 48.1606L159.12 71.9952V83.4419L120 59.6072V48.1606Z" fill="#F2C94C"/>
<path opacity="0.15" d="M135.313 97.8356L172.908 120.729V138.521L135.313 115.628V97.8356Z" fill="white"/>
<path opacity="0.15" d="M135.285 76.3069L172.937 99.2306V103.36L135.285 80.4665V76.3069Z" fill="white"/>
<path opacity="0.15" d="M135.285 84.3826L167.842 104.209V108.339L135.285 88.512V84.3826Z" fill="white"/>
<path opacity="0.2" d="M129.24 29.064L178.436 59.0318V75.7009L129.24 45.733V29.064Z" fill="url(#paint1_linear)"/>
<path opacity="0.2" d="M141.532 44.9741C141.532 47.4942 140.121 48.6784 138.394 47.646C136.667 46.5834 135.285 43.6989 135.285 41.1788C135.285 38.6587 136.696 37.4746 138.423 38.5069C140.121 39.5696 141.532 42.454 141.532 44.9741Z" fill="white"/>
<path opacity="0.15" d="M219.029 122.937L268.224 152.905L268.196 277.179L219 247.211L219.029 122.937Z" fill="url(#paint2_linear)"/>
<path d="M237.769 159.1L276.889 182.904V194.32L237.74 170.516L237.769 159.1Z" fill="#F2994A"/>
<path opacity="0.15" d="M225.103 170.911L262.726 193.834V211.596L225.103 188.673V170.911Z" fill="white"/>
<path opacity="0.15" d="M225.045 196.292L262.697 219.216V223.345L225.045 200.452V196.292Z" fill="white"/>
<path opacity="0.2" d="M219.028 122.937L268.224 152.905V169.574L219.028 139.606V122.937Z" fill="url(#paint3_linear)"/>
<path opacity="0.2" d="M231.321 138.88C231.321 141.4 229.91 142.584 228.183 141.552C226.456 140.489 225.074 137.604 225.074 135.084C225.074 132.564 226.485 131.38 228.212 132.412C229.91 133.445 231.321 136.359 231.321 138.88Z" fill="white"/>
<path opacity="0.15" d="M63.5517 61.8217L52.21 54.8991V50.8609L63.5517 57.7835C64.4729 58.3604 65.8258 59.4838 66.9773 61.2448C68.2151 63.1273 69.1075 65.4956 69.1075 68.0764C69.1075 70.9305 68.4166 72.5397 67.1212 73.0255C65.8834 73.4506 64.4441 72.7219 63.5517 72.1754L58.8884 69.3213L58.8596 69.2909C58.4566 69.048 57.8233 68.8051 57.3339 68.9569C56.9309 69.0784 56.4415 69.5338 56.4415 71.1127C56.4415 72.6915 56.9021 73.6631 57.3051 74.24C57.7945 74.9687 58.4278 75.4849 58.8308 75.6974L58.8884 75.7278L73.1663 84.4115V88.4497L58.9747 79.7964C57.996 79.2498 56.5855 78.1264 55.3764 76.335C54.0523 74.3615 53.1311 71.8717 53.1311 69.0784C53.1311 66.3154 54.0523 64.8884 55.3477 64.4936C56.5567 64.1293 57.9672 64.6758 58.9459 65.2831L63.5805 68.1068C64.2426 68.5015 64.7607 68.6837 65.0774 68.5622C65.3365 68.4711 65.797 68.0764 65.797 66.0421C65.797 64.7062 65.394 63.856 64.991 63.2488C64.5304 62.5808 63.9259 62.0343 63.5517 61.8217Z" fill="white"/>
<path d="M55.5783 55.3243C55.5783 58.7856 53.6496 60.3948 51.2891 58.9678C48.9287 57.5407 47 53.5632 47 50.1019C47 46.6406 48.9287 45.0314 51.2891 46.4584C53.6496 47.9158 55.5783 51.8933 55.5783 55.3243Z" fill="#F2C94C"/>
<path d="M78.3195 88.7226C78.3195 92.184 76.3908 93.7932 74.0304 92.3661C71.6699 90.9391 69.7412 86.9616 69.7412 83.5003C69.7412 80.0389 71.6699 78.4297 74.0304 79.8568C76.3908 81.3142 78.3195 85.2917 78.3195 88.7226Z" fill="#F2C94C"/>
<path opacity="0.2" d="M156.033 170.859C157.76 171.922 159.142 174.442 159.142 176.567V185.828L164.956 189.35C166.684 190.412 168.065 192.933 168.065 195.058C168.065 197.153 166.655 198.003 164.956 196.971L159.142 193.449V202.709C159.142 204.804 157.731 205.654 156.033 204.622C154.305 203.559 152.924 201.039 152.924 198.914V189.653L147.109 186.131C145.382 185.069 144 182.549 144 180.423C144 178.328 145.411 177.478 147.109 178.51L152.924 182.032V172.772C152.924 170.646 154.305 169.796 156.033 170.859Z" fill="url(#paint4_linear)"/>
<path opacity="0.2" d="M423.033 40.0679C424.76 41.1306 426.142 43.6507 426.142 45.7761V55.0366L431.956 58.5587C433.684 59.6214 435.065 62.1415 435.065 64.2668C435.065 66.3618 433.655 67.212 431.956 66.1797L426.142 62.6576V71.9182C426.142 74.0132 424.731 74.8634 423.033 73.831C421.305 72.7683 419.924 70.2483 419.924 68.1229V58.8623L414.109 55.3403C412.382 54.2776 411 51.7575 411 49.6321C411 47.5371 412.411 46.6869 414.109 47.7193L419.924 51.2413V41.9807C419.924 39.8554 421.305 39.0052 423.033 40.0679Z" fill="url(#paint5_linear)"/>
<path opacity="0.3" d="M111.639 148.7L26 96.5671L26.0288 143.659L104.126 191.207L111.696 203.018L111.639 148.7Z" fill="url(#paint6_linear)"/>
<path opacity="0.15" d="M89.6172 146.757L70.8486 135.34V139.47L89.6172 150.886V146.757Z" fill="white"/>
<path opacity="0.15" d="M89.6172 155.046L43.1562 126.749V130.878L89.6459 159.176L89.6172 155.046Z" fill="white"/>
<path opacity="0.15" d="M89.6463 163.335L33.542 129.177V133.306L89.6463 167.464V163.335Z" fill="white"/>
<path d="M94.252 153.893C94.252 157.779 96.4397 162.242 99.1168 163.882C101.794 165.522 103.982 163.7 103.982 159.813C103.982 155.927 101.794 151.464 99.1168 149.824C96.4109 148.184 94.252 150.006 94.252 153.893Z" fill="#F2994A"/>
<path opacity="0.07" d="M354.909 154.506C351.235 152.248 348.573 152.187 346.924 154.323C345.275 156.428 344.465 159.999 344.465 165.034V192.164C344.465 197.321 344.002 201.593 343.105 204.981C342.208 208.49 340.675 210.992 338.562 212.457C336.508 213.953 333.731 214.349 330.201 213.647C326.758 212.976 322.447 211.084 317.297 207.941L314.838 206.445V185.084L317.905 186.945C321.579 189.203 324.038 189.478 325.282 187.83C326.584 186.243 327.25 182.917 327.25 177.882V153.987C327.25 147.762 327.829 142.848 328.986 139.217C330.143 135.585 332.429 133.297 335.872 132.259C332.429 127.041 330.143 121.944 328.986 116.94C327.829 111.935 327.279 106.32 327.279 100.094V76.1998C327.279 71.1645 326.613 67.0752 325.311 63.871C324.096 60.7277 321.637 58.0423 317.934 55.784L314.867 53.9225V32.5607L317.326 34.0561C322.476 37.1993 326.787 40.5256 330.23 44.0656C333.76 47.636 336.537 51.4506 338.591 55.4483C340.732 59.5071 342.237 63.8405 343.134 68.4485C344.031 72.9345 344.494 77.7866 344.494 82.9134V110.043C344.494 115.078 345.304 119.656 346.953 123.745C348.602 127.865 351.264 131.038 354.938 133.266L354.909 154.506Z" fill="url(#paint7_linear)"/>
<path opacity="0.07" d="M261.602 75.9239C265.277 78.1821 267.938 78.2431 269.588 76.107C271.237 74.0013 272.047 70.4308 272.047 65.3956V38.2661C272.047 33.1088 272.51 28.8365 273.407 25.4491C274.303 21.9397 275.779 19.4068 277.833 17.9114C279.974 16.4466 282.752 16.0499 286.195 16.7213C289.724 17.4232 294.064 19.3457 299.214 22.489L301.674 23.9843V45.346L298.607 43.4845C294.932 41.2263 292.415 40.9211 291.113 42.508C289.898 44.1559 289.262 47.4822 289.262 52.5175V76.4121C289.262 82.6375 288.683 87.5507 287.526 91.1822C286.368 94.7832 284.083 97.1025 280.64 98.1401C284.083 103.358 286.368 108.455 287.526 113.459C288.683 118.464 289.233 124.079 289.233 130.305V154.199C289.233 159.235 289.84 163.324 291.084 166.467C292.386 169.671 294.903 172.387 298.578 174.615L301.645 176.477V197.838L299.185 196.343C294.035 193.2 289.696 189.843 286.166 186.273C282.723 182.733 279.945 178.949 277.804 174.89C275.75 170.892 274.275 166.589 273.378 161.951C272.481 157.465 272.018 152.613 272.018 147.486V120.356C272.018 115.321 271.208 110.744 269.559 106.654C267.909 102.534 265.248 99.3607 261.573 97.133L261.602 75.9239Z" fill="url(#paint8_linear)"/>
<path opacity="0.4" d="M343.336 163.662C339.662 161.404 337 161.343 335.351 163.479C333.702 165.584 332.891 169.155 332.891 174.19V201.32C332.891 206.477 332.428 210.749 331.532 214.137C330.635 217.646 329.101 220.148 326.989 221.613C324.935 223.109 322.157 223.505 318.628 222.803C315.185 222.132 310.874 220.24 305.724 217.097L303.265 215.601V194.24L306.331 196.101C310.006 198.359 312.465 198.634 313.709 196.986C315.011 195.399 315.677 192.073 315.677 187.038V163.143C315.677 156.918 316.255 152.004 317.413 148.373C318.57 144.741 320.856 142.453 324.298 141.415C320.856 136.197 318.57 131.1 317.413 126.096C316.255 121.091 315.706 115.476 315.706 109.25V85.3558C315.706 80.3205 315.04 76.2313 313.738 73.027C312.523 69.8838 310.064 67.1983 306.36 64.9401L303.294 63.0785V41.7168L305.753 43.2121C310.903 46.3553 315.214 49.6817 318.657 53.2216C322.186 56.7921 324.964 60.6067 327.018 64.6044C329.159 68.6631 330.664 72.9965 331.561 77.6045C332.457 82.0905 332.92 86.9427 332.92 92.0695V119.199C332.92 124.234 333.73 128.812 335.38 132.901C337.029 137.021 339.691 140.194 343.365 142.422L343.336 163.662Z" fill="url(#paint9_linear)"/>
<path opacity="0.4" d="M250.029 85.0823C253.703 87.3405 256.365 87.4015 258.014 85.2654C259.663 83.1597 260.474 79.5892 260.474 74.554V47.4246C260.474 42.2672 260.936 37.9949 261.833 34.6075C262.73 31.0981 264.206 28.5652 266.26 27.0699C268.401 25.6051 271.179 25.2083 274.621 25.8797C278.151 26.5816 282.491 28.5041 287.641 31.6474L290.1 33.1427V54.5044L287.033 52.6429C283.359 50.3847 280.842 50.0795 279.54 51.6664C278.325 53.3143 277.688 56.6406 277.688 61.6759V85.5705C277.688 91.796 277.11 96.7092 275.952 100.341C274.795 103.942 272.509 106.261 269.066 107.298C272.509 112.517 274.795 117.613 275.952 122.618C277.11 127.623 277.659 133.238 277.659 139.463V163.358C277.659 168.393 278.267 172.482 279.511 175.626C280.813 178.83 283.33 181.546 287.005 183.774L290.071 185.635V206.997L287.612 205.502C282.462 202.358 278.122 199.001 274.593 195.431C271.15 191.891 268.372 188.107 266.231 184.048C264.177 180.051 262.701 175.748 261.804 171.109C260.908 166.623 260.445 161.771 260.445 156.644V129.515C260.445 124.479 259.634 119.902 257.985 115.813C256.336 111.693 253.674 108.519 250 106.291L250.029 85.0823Z" fill="url(#paint10_linear)"/>
<path opacity="0.07" d="M373.772 74.4181L514.168 159.891V238.254L373.726 152.781L373.772 74.4181Z" fill="url(#paint11_linear)"/>
<path opacity="0.3" d="M355 84.2937L495.396 169.767V248.129L355 162.656V84.2937Z" fill="url(#paint12_linear)"/>
<path d="M367.593 130.955C367.593 137.275 371.151 144.534 375.504 147.2C379.858 149.867 383.416 146.904 383.416 140.584C383.416 134.263 379.858 127.005 375.504 124.338C371.151 121.672 367.593 124.634 367.593 130.955Z" fill="#F2994A"/>
<path opacity="0.15" d="M387.396 143.152C387.396 146.065 389.034 149.472 391.094 150.706C393.107 151.941 394.745 150.558 394.745 147.645C394.745 144.732 393.107 141.325 391.047 140.09C389.034 138.856 387.396 140.238 387.396 143.152Z" fill="white"/>
<path opacity="0.15" d="M398.678 150.015C398.678 152.928 400.316 156.335 402.376 157.57C404.389 158.804 406.028 157.422 406.028 154.508C406.028 151.595 404.389 148.188 402.329 146.954C400.316 145.719 398.678 147.102 398.678 150.015Z" fill="white"/>
<path opacity="0.15" d="M459.957 163.346V207.934L454.433 204.577V159.989L459.957 163.346Z" fill="white"/>
<path opacity="0.15" d="M472.036 170.754V215.342L466.512 211.984V167.396L472.036 170.754Z" fill="white"/>
<path opacity="0.15" d="M484.16 178.162V222.75L478.636 219.392V174.804L484.16 178.162Z" fill="white"/>
<path opacity="0.07" d="M373.726 181.519L514.121 266.992V345.355L373.726 259.882V181.519Z" fill="url(#paint13_linear)"/>
<path opacity="0.3" d="M355 191.888L495.396 277.361V355.723L355 270.25V191.888Z" fill="url(#paint14_linear)"/>
</g>
</g>
<defs>
<linearGradient id="paint0_linear" x1="179.328" y1="59.5642" x2="128.471" y2="143.1" gradientUnits="userSpaceOnUse">
<stop stop-color="white"/>
<stop offset="1" stop-color="white" stop-opacity="0"/>
</linearGradient>
<linearGradient id="paint1_linear" x1="146.119" y1="29.3177" x2="162.572" y2="73.5451" gradientUnits="userSpaceOnUse">
<stop stop-color="white"/>
<stop offset="1" stop-color="white" stop-opacity="0"/>
</linearGradient>
<linearGradient id="paint2_linear" x1="269.115" y1="153.445" x2="218.258" y2="236.98" gradientUnits="userSpaceOnUse">
<stop stop-color="white"/>
<stop offset="1" stop-color="white" stop-opacity="0"/>
</linearGradient>
<linearGradient id="paint3_linear" x1="235.905" y1="123.198" x2="252.358" y2="167.426" gradientUnits="userSpaceOnUse">
<stop stop-color="white"/>
<stop offset="1" stop-color="white" stop-opacity="0"/>
</linearGradient>
<linearGradient id="paint4_linear" x1="162.037" y1="182.689" x2="146.353" y2="194.417" gradientUnits="userSpaceOnUse">
<stop stop-color="white"/>
<stop offset="1" stop-color="white" stop-opacity="0"/>
</linearGradient>
<linearGradient id="paint5_linear" x1="429.037" y1="51.8979" x2="413.353" y2="63.6256" gradientUnits="userSpaceOnUse">
<stop stop-color="white"/>
<stop offset="1" stop-color="white" stop-opacity="0"/>
</linearGradient>
<linearGradient id="paint6_linear" x1="92.9659" y1="129.854" x2="46.9675" y2="164" gradientUnits="userSpaceOnUse">
<stop stop-color="white"/>
<stop offset="1" stop-color="white" stop-opacity="0"/>
</linearGradient>
<linearGradient id="paint7_linear" x1="373.112" y1="38.7308" x2="295.897" y2="165.608" gradientUnits="userSpaceOnUse">
<stop stop-color="white"/>
<stop offset="1" stop-color="white" stop-opacity="0"/>
</linearGradient>
<linearGradient id="paint8_linear" x1="338.801" y1="17.2849" x2="261.586" y2="144.162" gradientUnits="userSpaceOnUse">
<stop stop-color="white"/>
<stop offset="1" stop-color="white" stop-opacity="0"/>
</linearGradient>
<linearGradient id="paint9_linear" x1="361.538" y1="47.8868" x2="284.323" y2="174.764" gradientUnits="userSpaceOnUse">
<stop stop-color="white"/>
<stop offset="1" stop-color="white" stop-opacity="0"/>
</linearGradient>
<linearGradient id="paint10_linear" x1="327.228" y1="26.4432" x2="250.013" y2="153.321" gradientUnits="userSpaceOnUse">
<stop stop-color="white"/>
<stop offset="1" stop-color="white" stop-opacity="0"/>
</linearGradient>
<linearGradient id="paint11_linear" x1="441.077" y1="80.6843" x2="446.895" y2="219.272" gradientUnits="userSpaceOnUse">
<stop stop-color="white"/>
<stop offset="1" stop-color="white" stop-opacity="0"/>
</linearGradient>
<linearGradient id="paint12_linear" x1="422.35" y1="90.5599" x2="428.169" y2="229.148" gradientUnits="userSpaceOnUse">
<stop stop-color="white"/>
<stop offset="1" stop-color="white" stop-opacity="0"/>
</linearGradient>
<linearGradient id="paint13_linear" x1="441.067" y1="187.802" x2="446.885" y2="326.39" gradientUnits="userSpaceOnUse">
<stop stop-color="white"/>
<stop offset="1" stop-color="white" stop-opacity="0"/>
</linearGradient>
<linearGradient id="paint14_linear" x1="422.34" y1="198.171" x2="428.159" y2="336.758" gradientUnits="userSpaceOnUse">
<stop stop-color="white"/>
<stop offset="1" stop-color="white" stop-opacity="0"/>
</linearGradient>
<clipPath id="clip0">
<rect width="496" height="202" fill="white"/>
</clipPath>
</defs>
</svg>
