<svg width="460" height="371" viewBox="0 0 460 371" fill="none" xmlns="http://www.w3.org/2000/svg">
<path opacity="0.3" d="M143.12 0L417.029 157.864L416.989 371L143.081 213.136L143.12 0Z" fill="url(#paint0_linear)"/>
<path opacity="0.3" d="M143.081 0L416.34 157.63V186.532L143.081 28.9022V0Z" fill="url(#paint1_linear)"/>
<path opacity="0.2" d="M167.86 0.688309L441.12 158.319V187.221L167.86 29.5905V0.688309Z" fill="url(#paint2_linear)"/>
<path d="M161.665 68.8312L388.808 200.244V209.935L161.665 78.5804V68.8312Z" fill="#FDAC65"/>
<path opacity="0.3" fill-rule="evenodd" clip-rule="evenodd" d="M161.665 79.8441L388.808 211.257V220.948L161.665 89.5933V79.8441ZM161.665 90.8575L357.834 203.727V213.377L161.665 100.507V90.8575ZM328.925 198.818L161.665 101.87V111.612L328.925 208.559V198.818ZM161.665 112.883L328.925 209.831V219.572L161.665 122.625V112.883ZM328.925 220.844L161.665 123.896V133.638L328.925 230.585V220.844ZM161.665 145.922L276.613 212.584V222.325L161.665 155.664V145.922ZM392.938 280.038L277.99 213.377V223.118L392.938 289.78V280.038ZM161.665 156.935L225.678 194.104V203.845L161.665 166.676V156.935ZM311.717 244.351L247.704 207.182V216.923L311.717 254.092V244.351ZM161.665 167.948L204.341 192.728V202.469L161.665 177.689V167.948ZM187.821 193.999L161.665 178.961V188.702L187.821 203.741V193.999ZM161.665 189.974L174.743 197.441V207.182L161.665 199.715V189.974ZM273.86 233.922L247.704 218.883V228.625L273.86 243.663V233.922Z" fill="url(#paint3_linear)"/>
<path opacity="0.2" d="M173.366 31.8577C173.366 36.2652 170.729 38.3274 167.516 36.5078C164.302 34.6882 161.665 29.6337 161.665 25.2667C161.665 20.8996 164.302 18.7969 167.516 20.6165C170.729 22.4362 173.366 27.4906 173.366 31.8577Z" fill="white"/>
<path opacity="0.3" fill-rule="evenodd" clip-rule="evenodd" d="M444.649 57.1539C444.649 61.2276 443.951 64.6737 442.709 67.366L459.281 93.3007L455.569 102.184L437.058 73.2609C434.049 74.5289 430.352 74.1705 426.352 71.8734C416.262 66.0637 408.081 50.0416 408.081 36.1037C408.081 22.1657 416.262 15.5745 426.378 21.3841C436.468 27.1938 444.649 43.2159 444.649 57.1539ZM426.475 60.7247C432.058 63.9948 436.573 60.2848 436.573 52.4395C436.573 44.5943 432.058 35.5759 426.489 32.3058C420.906 29.0357 416.391 32.7457 416.391 40.591C416.391 48.4362 420.906 57.4546 426.475 60.7247Z" fill="url(#paint4_linear)"/>
<path opacity="0.4" fill-rule="evenodd" clip-rule="evenodd" d="M434.254 58.2159C434.254 62.2896 433.555 65.7357 432.313 68.4281L448.885 94.3627L445.174 103.247L426.663 74.3229C423.654 75.5909 419.957 75.2326 415.957 72.9354C405.867 67.1258 397.685 51.1036 397.685 37.1657C397.685 23.2278 405.867 16.6365 415.983 22.4462C426.073 28.2558 434.254 44.278 434.254 58.2159ZM416.08 61.7867C421.662 65.0568 426.178 61.3468 426.178 53.5016C426.178 45.6563 421.662 36.6379 416.094 33.3679C410.511 30.0978 405.996 33.8078 405.996 41.653C405.996 49.4983 410.511 58.5166 416.08 61.7867Z" fill="url(#paint5_linear)"/>
<path opacity="0.3" fill-rule="evenodd" clip-rule="evenodd" d="M88.1344 202.817C88.1344 210.642 86.7917 217.262 84.4061 222.433L116.235 272.244L109.106 289.308L73.5523 233.755C67.7735 236.189 60.6723 235.501 52.9903 231.089C33.6109 219.93 17.8965 189.157 17.8965 162.386C17.8965 135.615 33.6109 122.955 53.0405 134.114C72.42 145.273 88.1344 176.047 88.1344 202.817ZM53.2261 209.676C63.9493 215.956 72.622 208.831 72.622 193.762C72.622 178.694 63.9493 161.372 53.2538 155.091C42.5307 148.81 33.858 155.936 33.858 171.005C33.858 186.073 42.5307 203.395 53.2261 209.676Z" fill="url(#paint6_linear)"/>
<path opacity="0.5" fill-rule="evenodd" clip-rule="evenodd" d="M70.2379 202.817C70.2379 210.642 68.8952 217.262 66.5096 222.433L98.3383 272.244L91.209 289.307L55.6559 233.754C49.877 236.189 42.7758 235.501 35.0938 231.089C15.7144 219.93 0 189.156 0 162.386C0 135.615 15.7144 122.955 35.1441 134.114C54.5235 145.272 70.2379 176.046 70.2379 202.817ZM35.3297 209.675C46.0528 215.956 54.7255 208.83 54.7255 193.762C54.7255 178.693 46.0528 161.372 35.3574 155.091C24.6342 148.81 15.9615 155.936 15.9615 171.004C15.9615 186.073 24.6342 203.394 35.3297 209.675Z" fill="url(#paint7_linear)"/>
<path opacity="0.3" fill-rule="evenodd" clip-rule="evenodd" d="M273.567 294.288C273.567 296.708 273.152 298.754 272.415 300.354L282.257 315.757L280.052 321.033L269.058 303.855C267.271 304.608 265.075 304.395 262.7 303.031C256.707 299.58 251.848 290.064 251.848 281.785C251.848 273.507 256.707 269.592 262.715 273.043C268.708 276.493 273.567 286.01 273.567 294.288ZM262.773 296.409C266.089 298.351 268.771 296.148 268.771 291.488C268.771 286.829 266.089 281.472 262.781 279.53C259.465 277.588 256.784 279.791 256.784 284.451C256.784 289.11 259.465 294.467 262.773 296.409Z" fill="url(#paint8_linear)"/>
<path opacity="0.3" fill-rule="evenodd" clip-rule="evenodd" d="M265.996 294.289C265.996 296.708 265.581 298.755 264.843 300.354L274.686 315.757L272.481 321.034L261.487 303.855C259.7 304.608 257.504 304.395 255.128 303.031C249.136 299.58 244.276 290.064 244.276 281.786C244.276 273.508 249.136 269.593 255.144 273.043C261.137 276.494 265.996 286.01 265.996 294.289ZM255.201 296.41C258.517 298.352 261.199 296.148 261.199 291.489C261.199 286.829 258.517 281.473 255.21 279.53C251.894 277.588 249.212 279.792 249.212 284.451C249.212 289.111 251.894 294.467 255.201 296.41Z" fill="url(#paint9_linear)"/>
<path opacity="0.3" d="M134.133 118.39L301.392 215.337V225.078L134.133 128.131V118.39Z" fill="url(#paint10_linear)"/>
<path d="M127.25 119.078L294.509 216.025V225.766L127.25 128.819V119.078Z" fill="url(#paint11_linear)"/>
<defs>
<linearGradient id="paint0_linear" x1="305.376" y1="-199.118" x2="213.681" y2="168.787" gradientUnits="userSpaceOnUse">
<stop stop-color="#212E99"/>
<stop offset="1" stop-color="#212E99" stop-opacity="0"/>
</linearGradient>
<linearGradient id="paint1_linear" x1="304.968" y1="-100.113" x2="280.67" y2="93.3011" gradientUnits="userSpaceOnUse">
<stop stop-color="#212E99"/>
<stop offset="1" stop-color="#212E99" stop-opacity="0"/>
</linearGradient>
<linearGradient id="paint2_linear" x1="326.172" y1="-77.4351" x2="326.789" y2="170.353" gradientUnits="userSpaceOnUse">
<stop stop-color="#212E99"/>
<stop offset="1" stop-color="#212E99" stop-opacity="0"/>
</linearGradient>
<linearGradient id="paint3_linear" x1="164.762" y1="-6.88326" x2="304.273" y2="286.445" gradientUnits="userSpaceOnUse">
<stop stop-color="#212E99"/>
<stop offset="1" stop-color="#212E99" stop-opacity="0"/>
</linearGradient>
<linearGradient id="paint4_linear" x1="438.413" y1="-25.2264" x2="414.51" y2="54.9774" gradientUnits="userSpaceOnUse">
<stop stop-color="#212E99"/>
<stop offset="1" stop-color="#212E99" stop-opacity="0"/>
</linearGradient>
<linearGradient id="paint5_linear" x1="405.032" y1="4.56674" x2="398.81" y2="93.3322" gradientUnits="userSpaceOnUse">
<stop stop-color="#212E99"/>
<stop offset="1" stop-color="#212E99" stop-opacity="0"/>
</linearGradient>
<linearGradient id="paint6_linear" x1="76.155" y1="44.5889" x2="30.2446" y2="198.636" gradientUnits="userSpaceOnUse">
<stop stop-color="#212E99"/>
<stop offset="1" stop-color="#212E99" stop-opacity="0"/>
</linearGradient>
<linearGradient id="paint7_linear" x1="14.1104" y1="99.7727" x2="2.15954" y2="270.265" gradientUnits="userSpaceOnUse">
<stop stop-color="#212E99"/>
<stop offset="1" stop-color="#212E99" stop-opacity="0"/>
</linearGradient>
<linearGradient id="paint8_linear" x1="269.863" y1="245.359" x2="255.666" y2="292.995" gradientUnits="userSpaceOnUse">
<stop stop-color="#212E99"/>
<stop offset="1" stop-color="#212E99" stop-opacity="0"/>
</linearGradient>
<linearGradient id="paint9_linear" x1="248.64" y1="262.424" x2="244.944" y2="315.145" gradientUnits="userSpaceOnUse">
<stop stop-color="#212E99"/>
<stop offset="1" stop-color="#212E99" stop-opacity="0"/>
</linearGradient>
<linearGradient id="paint10_linear" x1="233.222" y1="61.1294" x2="220.21" y2="171.972" gradientUnits="userSpaceOnUse">
<stop stop-color="#212E99"/>
<stop offset="1" stop-color="#212E99" stop-opacity="0"/>
</linearGradient>
<linearGradient id="paint11_linear" x1="170.76" y1="124.304" x2="215.438" y2="232.971" gradientUnits="userSpaceOnUse">
<stop offset="0.0706488" stop-color="#FCBB0B"/>
<stop offset="1" stop-color="#F3851C"/>
</linearGradient>
</defs>
</svg>
