<svg width="789" height="539" viewBox="0 0 789 539" fill="none" xmlns="http://www.w3.org/2000/svg">
<g clip-path="url(#clip0)">
<rect width="789" height="539" fill="#1D2443"/>
<rect opacity="0.25" x="-203.516" y="184.576" width="1099.54" height="532.659" transform="rotate(-27 -203.516 184.576)" fill="url(#paint0_linear)"/>
<rect opacity="0.1" x="363" y="176.001" width="551.555" height="239.908" transform="rotate(-27 363 176.001)" fill="url(#paint1_linear)"/>
<path d="M410.915 337.459C423.66 353.4 437.812 370.898 447.741 383.132C458.781 349.915 444.036 303.502 427.587 268.803C423.66 290.378 418.176 313.215 410.915 337.459Z" fill="url(#paint2_linear)"/>
<path d="M333.262 214.529C316.887 230.248 302.216 259.608 313.256 305.503C323.185 304.687 337.263 303.575 350.008 302.389C342.747 269.766 337.263 240.628 333.262 214.529Z" fill="url(#paint3_linear)"/>
<path opacity="0.2" d="M368.532 378.015C276.948 26.1311 352.304 -3.74857 380.757 -15.7598C409.211 29.171 484.493 146.021 392.835 392.028L368.532 378.015Z" fill="url(#paint4_linear)"/>
<path opacity="0.1" d="M395.504 357.775C303.92 5.96504 379.203 -23.9888 407.73 -36C436.183 8.93079 511.465 125.781 419.807 371.788L395.504 357.775Z" fill="url(#paint5_linear)"/>
<path opacity="0.15" d="M392.836 392.028C484.493 146.021 409.211 29.171 380.758 -15.7598V385.058L392.836 392.028Z" fill="url(#paint6_linear)"/>
<path opacity="0.1" d="M408.025 108.134C408.025 129.562 395.429 139.645 379.869 130.674C364.308 121.703 351.712 97.0129 351.712 75.5855C351.712 54.1581 364.308 44.0746 379.869 53.046C395.429 62.0173 408.025 86.707 408.025 108.134Z" fill="white"/>
<path opacity="0.1" d="M393.962 444.948C390.343 439.053 388.596 431.58 387.058 425.021C385.269 417.465 383.772 411.03 380.029 409.411C375.745 407.543 373.832 412.276 371.128 418.835C369.548 422.696 367.676 427.262 364.931 431.455C361.979 428.342 358.859 425.768 355.574 423.9C341.807 415.971 330.328 422.82 327.625 439.177C325.753 437.766 323.882 436.479 321.968 435.358C299.884 422.654 282 437.06 282 467.615C282 498.128 299.884 533.166 321.927 545.87C343.346 558.199 360.856 544.956 361.854 516.27C365.888 523.742 371.253 530.011 377.201 533.415C378.74 534.287 380.237 534.951 381.651 535.366C390.218 554.173 402.987 570.363 417.252 578.583C443.038 593.445 463.958 576.673 464 541.137C464 505.6 443.08 464.709 417.294 449.846C408.768 444.948 400.824 443.453 393.962 444.948Z" fill="url(#paint7_linear)"/>
<path opacity="0.2" d="M527 145.689C529.153 147.007 530.876 150.134 530.876 152.771V164.26L538.124 168.629C540.278 169.948 542 173.074 542 175.711C542 178.31 540.242 179.365 538.124 178.084L530.876 173.715V185.204C530.876 187.803 529.117 188.858 527 187.577C524.847 186.258 523.124 183.132 523.124 180.495V169.006L515.876 164.636C513.722 163.318 512 160.191 512 157.554C512 154.955 513.758 153.901 515.876 155.181L523.124 159.551V148.062C523.124 145.425 524.847 144.37 527 145.689Z" fill="url(#paint8_linear)"/>
<path opacity="0.07" d="M527.069 401.121L734.353 524.817V638.222L527 514.527L527.069 401.121Z" fill="url(#paint9_linear)"/>
<path opacity="0.07" d="M46.0513 338L200 432.949V520L46 425.051L46.0513 338Z" fill="url(#paint10_linear)"/>
<path opacity="0.07" d="M92.0691 23L299.353 146.696V260.101L92 136.405L92.0691 23Z" fill="url(#paint11_linear)"/>
<path opacity="0.15" d="M575.034 30.1216L633.672 65.1337L633.638 210.326L575 175.314L575.034 30.1216Z" fill="url(#paint12_linear)"/>
<path d="M597.371 72.3717L644 100.183V113.521L597.337 85.7097L597.371 72.3717Z" fill="#F2994A"/>
<path opacity="0.15" d="M582.274 86.1696L627.118 112.952V133.704L582.274 106.922V86.1696Z" fill="white"/>
<path opacity="0.15" d="M582.205 115.824L627.084 142.606V147.43L582.205 120.683V115.824Z" fill="white"/>
<path opacity="0.15" d="M582.205 124.553L621.011 147.718V152.542L582.205 129.378V124.553Z" fill="white"/>
<path opacity="0.2" d="M575.034 30.1211L633.671 65.1333V84.6081L575.034 49.596V30.1211Z" fill="url(#paint13_linear)"/>
<path opacity="0.2" d="M589.686 48.7464C589.686 51.6907 588.004 53.0742 585.946 51.8681C583.887 50.6265 582.24 47.2566 582.24 44.3123C582.24 41.368 583.921 39.9845 585.98 41.1906C588.004 42.3967 589.686 45.8022 589.686 48.7464Z" fill="white"/>
<path opacity="0.15" d="M90.5517 242.689L79.21 235.904V231.946L90.5517 238.731C91.4729 239.297 92.8258 240.398 93.9773 242.124C95.2151 243.969 96.1075 246.291 96.1075 248.82C96.1075 251.618 95.4166 253.195 94.1212 253.671C92.8834 254.088 91.4441 253.374 90.5517 252.838L85.8884 250.041L85.8596 250.011C85.4566 249.773 84.8233 249.535 84.3339 249.683C83.9309 249.802 83.4415 250.249 83.4415 251.796C83.4415 253.344 83.9021 254.296 84.3051 254.862C84.7945 255.576 85.4278 256.082 85.8308 256.29L85.8884 256.32L100.166 264.832V268.79L85.9747 260.308C84.996 259.772 83.5855 258.671 82.3764 256.915C81.0523 254.981 80.1311 252.54 80.1311 249.802C80.1311 247.094 81.0523 245.695 82.3477 245.308C83.5567 244.951 84.9672 245.487 85.9459 246.082L90.5805 248.85C91.2426 249.237 91.7607 249.416 92.0774 249.296C92.3365 249.207 92.797 248.82 92.797 246.826C92.797 245.517 92.394 244.683 91.991 244.088C91.5304 243.434 90.9259 242.898 90.5517 242.689Z" fill="white"/>
<path d="M82.5783 236.321C82.5783 239.713 80.6496 241.291 78.2891 239.892C75.9287 238.493 74 234.595 74 231.202C74 227.809 75.9287 226.232 78.2891 227.63C80.6496 229.059 82.5783 232.958 82.5783 236.321Z" fill="#F2C94C"/>
<path d="M105.319 269.058C105.319 272.45 103.391 274.028 101.03 272.629C98.6699 271.23 96.7412 267.332 96.7412 263.939C96.7412 260.546 98.6699 258.969 101.03 260.367C103.391 261.796 105.319 265.695 105.319 269.058Z" fill="#F2C94C"/>
<path opacity="0.07" d="M741.778 206.746L725 196.801V191L741.778 200.945C743.14 201.773 745.142 203.387 746.845 205.917C748.676 208.621 749.996 212.024 749.996 215.731C749.996 219.831 748.974 222.143 747.058 222.841C745.227 223.452 743.098 222.405 741.778 221.62L734.879 217.52L734.837 217.476C734.241 217.127 733.304 216.778 732.58 216.996C731.984 217.171 731.26 217.825 731.26 220.093C731.26 222.361 731.941 223.757 732.537 224.586C733.261 225.633 734.198 226.374 734.794 226.68L734.879 226.723L756 239.198V245L735.007 232.568C733.559 231.783 731.473 230.169 729.684 227.596C727.726 224.76 726.363 221.184 726.363 217.171C726.363 213.201 727.726 211.151 729.642 210.584C731.43 210.061 733.517 210.846 734.965 211.718L741.82 215.775C742.8 216.342 743.566 216.604 744.035 216.429C744.418 216.298 745.099 215.731 745.099 212.809C745.099 210.89 744.503 209.668 743.907 208.796C743.226 207.836 742.331 207.051 741.778 206.746Z" fill="url(#paint14_linear)"/>
<path d="M734.875 211.869L719.419 202.622V197.228L734.875 206.475C736.131 207.246 737.974 208.746 739.544 211.099C741.23 213.613 742.446 216.777 742.446 220.224C742.446 224.036 741.505 226.186 739.74 226.835C738.053 227.402 736.091 226.429 734.875 225.699L728.52 221.887L728.481 221.846C727.932 221.522 727.069 221.197 726.402 221.4C725.853 221.562 725.186 222.171 725.186 224.28C725.186 226.389 725.814 227.686 726.363 228.457C727.03 229.43 727.893 230.12 728.442 230.404L728.52 230.444L747.978 242.044V247.438L728.638 235.879C727.304 235.149 725.382 233.648 723.735 231.255C721.93 228.619 720.675 225.294 720.675 221.562C720.675 217.872 721.93 215.965 723.695 215.438C725.343 214.951 727.265 215.681 728.599 216.493L734.915 220.264C735.817 220.792 736.523 221.035 736.954 220.873C737.308 220.751 737.935 220.224 737.935 217.507C737.935 215.722 737.386 214.586 736.837 213.775C736.209 212.883 735.385 212.153 734.875 211.869Z" fill="#4F5A74"/>
<path d="M724.01 203.19C724.01 207.814 721.381 209.964 718.165 208.057C714.948 206.151 712.32 200.838 712.32 196.215C712.32 191.591 714.948 189.442 718.165 191.348C721.381 193.295 724.01 198.608 724.01 203.19Z" fill="url(#paint15_linear)"/>
<path d="M755 247.802C755 252.425 752.372 254.575 749.155 252.669C745.938 250.762 743.31 245.449 743.31 240.826C743.31 236.202 745.938 234.053 749.155 235.959C752.372 237.906 755 243.219 755 247.802Z" fill="url(#paint16_linear)"/>
<path opacity="0.3" d="M27 362.12L167.396 445.901V522.711L27 438.931V362.12Z" fill="url(#paint17_linear)"/>
<g opacity="0.6">
<path opacity="0.6" d="M131.957 441.109V484.814L126.433 481.523V437.817L131.957 441.109Z" fill="#1A202C"/>
<path opacity="0.6" d="M144.036 448.37V492.076L138.512 488.784V445.079L144.036 448.37Z" fill="#1A202C"/>
<path opacity="0.6" d="M156.16 455.628V499.333L150.636 496.042V452.337L156.16 455.628Z" fill="#1A202C"/>
</g>
<path d="M128.524 446.29V489.995L123 486.704V442.999L128.524 446.29Z" fill="#374462"/>
<path d="M140.603 453.552V497.257L135.079 493.966V450.261L140.603 453.552Z" fill="#374462"/>
<path d="M152.727 460.81V504.515L147.203 501.224V457.519L152.727 460.81Z" fill="#374462"/>
<path d="M39.5928 407.858C39.5928 414.053 43.1506 421.168 47.5044 423.781C51.8581 426.395 55.416 423.491 55.416 417.296C55.416 411.101 51.8581 403.986 47.5044 401.372C43.1506 398.759 39.5928 401.663 39.5928 407.858Z" fill="#353F54"/>
<path d="M34 408.445C34 414.64 37.5579 421.755 41.9116 424.369C46.2653 426.982 49.8232 424.078 49.8232 417.883C49.8232 411.688 46.2653 404.573 41.9116 401.959C37.5579 399.346 34 402.25 34 408.445Z" fill="url(#paint18_linear)"/>
<path opacity="0.15" d="M59.3955 419.861C59.3955 422.717 61.034 426.057 63.0938 427.267C65.1068 428.477 66.7453 427.121 66.7453 424.266C66.7453 421.41 65.1068 418.071 63.047 416.861C61.034 415.651 59.3955 416.957 59.3955 419.861Z" fill="white"/>
<path opacity="0.15" d="M70.6309 426.588C70.6309 429.444 72.2694 432.783 74.3292 433.993C76.3422 435.203 77.9807 433.848 77.9807 430.992C77.9807 428.137 76.3422 424.797 74.2824 423.587C72.2694 422.329 70.6309 423.684 70.6309 426.588Z" fill="white"/>
<path opacity="0.3" d="M494 408.113L679.232 518.65V619.991L494 509.454V408.113Z" fill="url(#paint19_linear)"/>
<path d="M506 465.945C506 474.119 510.694 483.506 516.438 486.954C522.182 490.403 526.876 486.571 526.876 478.398C526.876 470.224 522.182 460.837 516.438 457.389C510.694 453.94 506 457.772 506 465.945Z" fill="url(#paint20_linear)"/>
<path opacity="0.3" d="M538.741 487.295C538.741 491.063 540.903 495.469 543.621 497.065C546.277 498.662 548.438 496.874 548.438 493.106C548.438 489.338 546.277 484.932 543.559 483.336C540.903 481.739 538.741 483.464 538.741 487.295Z" fill="#1A202C"/>
<path opacity="0.3" d="M553.565 496.17C553.565 499.937 555.727 504.343 558.444 505.94C561.1 507.536 563.262 505.748 563.262 501.981C563.262 498.213 561.1 493.807 558.383 492.211C555.727 490.55 553.565 492.338 553.565 496.17Z" fill="#1A202C"/>
<path d="M534 487.553C534 491.32 536.162 495.727 538.879 497.323C541.535 498.919 543.697 497.131 543.697 493.364C543.697 489.596 541.535 485.19 538.818 483.594C536.162 481.997 534 483.721 534 487.553Z" fill="#5B657E"/>
<path d="M548.824 496.428C548.824 500.195 550.985 504.601 553.703 506.198C556.359 507.794 558.521 506.006 558.521 502.239C558.521 498.471 556.359 494.065 553.641 492.468C550.985 490.808 548.824 492.596 548.824 496.428Z" fill="#5B657E"/>
<path opacity="0.15" d="M632.476 512.327V569.99L625.187 565.648V507.985L632.476 512.327Z" fill="white"/>
<path opacity="0.15" d="M648.412 521.907V579.57L641.124 575.228V517.565L648.412 521.907Z" fill="white"/>
<path opacity="0.15" d="M664.408 531.485V589.148L657.12 584.806V527.143L664.408 531.485Z" fill="white"/>
<path opacity="0.3" d="M78 53.8789L263.232 164.415V265.757L78 155.22V53.8789Z" fill="url(#paint21_linear)"/>
<path opacity="0.15" d="M120.741 130.061C120.741 133.828 122.903 138.234 125.621 139.831C128.277 141.427 130.438 139.639 130.438 135.872C130.438 132.104 128.277 127.698 125.559 126.101C122.903 124.505 120.741 126.229 120.741 130.061Z" fill="white"/>
<path opacity="0.15" d="M135.565 138.935C135.565 142.703 137.727 147.109 140.444 148.705C143.1 150.302 145.262 148.514 145.262 144.746C145.262 140.979 143.1 136.573 140.382 134.976C137.727 133.316 135.565 135.104 135.565 138.935Z" fill="white"/>
<g opacity="0.6">
<path opacity="0.6" d="M216.476 158.092V215.755L209.188 211.413V153.75L216.476 158.092Z" fill="#1A202C"/>
<path opacity="0.6" d="M232.412 167.672V225.335L225.124 220.993V163.33L232.412 167.672Z" fill="#1A202C"/>
<path opacity="0.6" d="M248.408 177.25V234.913L241.12 230.571V172.908L248.408 177.25Z" fill="#1A202C"/>
</g>
<path d="M212.288 164.342V222.005L205 217.663V160L212.288 164.342Z" fill="#374462"/>
<path d="M228.225 173.922V231.585L220.937 227.243V169.58L228.225 173.922Z" fill="#374462"/>
<path d="M244.221 183.5V241.163L236.933 236.821V179.158L244.221 183.5Z" fill="#374462"/>
<path opacity="0.6" d="M89 108.994C89 118.14 94.2529 128.645 100.681 132.504C107.109 136.362 112.362 132.075 112.362 122.928C112.362 113.781 107.109 103.277 100.681 99.418C94.2529 95.5592 89 99.8468 89 108.994Z" fill="#353F54"/>
<path d="M83 110.711C83 118.884 87.6941 128.271 93.4382 131.72C99.1824 135.168 103.876 131.337 103.876 123.163C103.876 114.989 99.1824 105.602 93.4382 102.154C87.6941 98.7056 83 102.537 83 110.711Z" fill="#FFD569"/>
<path opacity="0.07" d="M635.717 257L843 380.696V494.101L635.647 370.405L635.717 257Z" fill="url(#paint22_linear)"/>
<path opacity="0.3" d="M608 271.292L815.284 394.987V508.393L608 384.697V271.292Z" fill="url(#paint23_linear)"/>
<path opacity="0.6" d="M624 334.994C624 344.14 629.253 354.645 635.681 358.504C642.109 362.362 647.362 358.075 647.362 348.928C647.362 339.781 642.109 329.277 635.681 325.418C629.253 321.559 624 325.847 624 334.994Z" fill="#353F54"/>
<path d="M616 338.994C616 348.14 621.253 358.645 627.681 362.504C634.109 366.362 639.362 362.075 639.362 352.928C639.362 343.781 634.109 333.277 627.681 329.418C621.253 325.559 616 329.847 616 338.994Z" fill="#FFD569"/>
<path opacity="0.15" d="M655.829 356.472C655.829 360.688 658.249 365.618 661.29 367.405C664.262 369.191 666.681 367.19 666.681 362.974C666.681 358.758 664.262 353.828 661.221 352.041C658.249 350.255 655.829 352.256 655.829 356.472Z" fill="white"/>
<path opacity="0.15" d="M672.487 366.405C672.487 370.621 674.906 375.552 677.948 377.339C680.92 379.125 683.339 377.124 683.339 372.908C683.339 368.692 680.92 363.761 677.878 361.975C674.906 360.188 672.487 362.189 672.487 366.405Z" fill="white"/>
<path opacity="0.15" d="M762.961 385.7V450.227L754.805 445.368V380.841L762.961 385.7Z" fill="white"/>
<path opacity="0.15" d="M780.795 396.418V460.946L772.639 456.086V391.559L780.795 396.418Z" fill="white"/>
<path opacity="0.15" d="M188.821 284L246.435 318.401L246.402 461.06L188.787 426.659L188.821 284Z" fill="url(#paint24_linear)"/>
<path d="M178 305.922L223.815 333.283V346.423L178 319.062V305.922Z" fill="#F2C94C"/>
<path opacity="0.15" d="M195.934 362.946L239.962 389.226V409.651L195.934 383.371V362.946Z" fill="white"/>
<path opacity="0.15" d="M195.901 338.231L239.997 364.546V369.286L195.901 343.006V338.231Z" fill="white"/>
<path opacity="0.15" d="M195.901 347.502L234.03 370.262V375.002L195.901 352.242V347.502Z" fill="white"/>
<path opacity="0.2" d="M188.822 284L246.436 318.401V337.536L188.822 303.135V284Z" fill="url(#paint25_linear)"/>
<path opacity="0.2" d="M203.216 302.264C203.216 305.157 201.565 306.516 199.542 305.331C197.519 304.111 195.901 300.8 195.901 297.907C195.901 295.014 197.553 293.655 199.576 294.84C201.565 296.06 203.216 299.371 203.216 302.264Z" fill="white"/>
</g>
<defs>
<linearGradient id="paint0_linear" x1="932.421" y1="374.824" x2="559.939" y2="733.665" gradientUnits="userSpaceOnUse">
<stop stop-color="white"/>
<stop offset="1" stop-color="white" stop-opacity="0"/>
</linearGradient>
<linearGradient id="paint1_linear" x1="934.181" y1="257.057" x2="791.935" y2="400.876" gradientUnits="userSpaceOnUse">
<stop stop-color="white"/>
<stop offset="1" stop-color="white" stop-opacity="0"/>
</linearGradient>
<linearGradient id="paint2_linear" x1="431.241" y1="268.803" x2="431.241" y2="383.132" gradientUnits="userSpaceOnUse">
<stop stop-color="#EA6A40"/>
<stop offset="1" stop-color="#EAA640" stop-opacity="0.93"/>
</linearGradient>
<linearGradient id="paint3_linear" x1="329.713" y1="214.529" x2="329.713" y2="305.503" gradientUnits="userSpaceOnUse">
<stop stop-color="#EA6A40"/>
<stop offset="1" stop-color="#EAA640" stop-opacity="0.93"/>
</linearGradient>
<linearGradient id="paint4_linear" x1="487.527" y1="-3.28391" x2="256.979" y2="395.891" gradientUnits="userSpaceOnUse">
<stop stop-color="white"/>
<stop offset="1" stop-color="white" stop-opacity="0"/>
</linearGradient>
<linearGradient id="paint5_linear" x1="514.492" y1="-23.5185" x2="283.944" y2="375.656" gradientUnits="userSpaceOnUse">
<stop stop-color="white"/>
<stop offset="1" stop-color="white" stop-opacity="0"/>
</linearGradient>
<linearGradient id="paint6_linear" x1="444.574" y1="83.7864" x2="266.599" y2="404.716" gradientUnits="userSpaceOnUse">
<stop stop-color="white" stop-opacity="0"/>
<stop offset="1" stop-color="white"/>
</linearGradient>
<linearGradient id="paint7_linear" x1="408.207" y1="444.624" x2="352.519" y2="541.28" gradientUnits="userSpaceOnUse">
<stop stop-color="white"/>
<stop offset="1" stop-color="white" stop-opacity="0"/>
</linearGradient>
<linearGradient id="paint8_linear" x1="534.485" y1="160.366" x2="515.001" y2="175.005" gradientUnits="userSpaceOnUse">
<stop stop-color="white"/>
<stop offset="1" stop-color="white" stop-opacity="0"/>
</linearGradient>
<linearGradient id="paint9_linear" x1="626.439" y1="410.189" x2="634.693" y2="610.767" gradientUnits="userSpaceOnUse">
<stop stop-color="white"/>
<stop offset="1" stop-color="white" stop-opacity="0"/>
</linearGradient>
<linearGradient id="paint10_linear" x1="119.853" y1="344.961" x2="126.401" y2="498.907" gradientUnits="userSpaceOnUse">
<stop stop-color="white"/>
<stop offset="1" stop-color="white" stop-opacity="0"/>
</linearGradient>
<linearGradient id="paint11_linear" x1="191.439" y1="32.0684" x2="199.693" y2="232.646" gradientUnits="userSpaceOnUse">
<stop stop-color="white"/>
<stop offset="1" stop-color="white" stop-opacity="0"/>
</linearGradient>
<linearGradient id="paint12_linear" x1="634.733" y1="65.7646" x2="575.868" y2="164.407" gradientUnits="userSpaceOnUse">
<stop stop-color="white"/>
<stop offset="1" stop-color="white" stop-opacity="0"/>
</linearGradient>
<linearGradient id="paint13_linear" x1="595.15" y1="30.4265" x2="614.081" y2="82.3458" gradientUnits="userSpaceOnUse">
<stop stop-color="white"/>
<stop offset="1" stop-color="white" stop-opacity="0"/>
</linearGradient>
<linearGradient id="paint14_linear" x1="739.867" y1="193.065" x2="742.724" y2="238.645" gradientUnits="userSpaceOnUse">
<stop stop-color="white"/>
<stop offset="1" stop-color="white" stop-opacity="0"/>
</linearGradient>
<linearGradient id="paint15_linear" x1="718.165" y1="190.654" x2="718.165" y2="208.751" gradientUnits="userSpaceOnUse">
<stop stop-color="#EA6A40"/>
<stop offset="1" stop-color="#EAA640" stop-opacity="0.93"/>
</linearGradient>
<linearGradient id="paint16_linear" x1="749.155" y1="235.265" x2="749.155" y2="253.363" gradientUnits="userSpaceOnUse">
<stop stop-color="#EA6A40"/>
<stop offset="1" stop-color="#EAA640" stop-opacity="0.93"/>
</linearGradient>
<linearGradient id="paint17_linear" x1="94.3404" y1="368.279" x2="99.9312" y2="504.131" gradientUnits="userSpaceOnUse">
<stop stop-color="white"/>
<stop offset="1" stop-color="white" stop-opacity="0"/>
</linearGradient>
<linearGradient id="paint18_linear" x1="41.9116" y1="400.999" x2="41.9116" y2="425.329" gradientUnits="userSpaceOnUse">
<stop stop-color="#EA6A40"/>
<stop offset="1" stop-color="#EAA640" stop-opacity="0.93"/>
</linearGradient>
<linearGradient id="paint19_linear" x1="582.846" y1="416.239" x2="590.223" y2="595.477" gradientUnits="userSpaceOnUse">
<stop stop-color="white"/>
<stop offset="1" stop-color="white" stop-opacity="0"/>
</linearGradient>
<linearGradient id="paint20_linear" x1="516.438" y1="456.121" x2="516.438" y2="488.222" gradientUnits="userSpaceOnUse">
<stop stop-color="#EA6A40"/>
<stop offset="1" stop-color="#EAA640" stop-opacity="0.93"/>
</linearGradient>
<linearGradient id="paint21_linear" x1="166.846" y1="62.0042" x2="174.223" y2="241.243" gradientUnits="userSpaceOnUse">
<stop stop-color="white"/>
<stop offset="1" stop-color="white" stop-opacity="0"/>
</linearGradient>
<linearGradient id="paint22_linear" x1="735.087" y1="266.068" x2="743.341" y2="466.646" gradientUnits="userSpaceOnUse">
<stop stop-color="white"/>
<stop offset="1" stop-color="white" stop-opacity="0"/>
</linearGradient>
<linearGradient id="paint23_linear" x1="707.438" y1="280.36" x2="715.692" y2="480.937" gradientUnits="userSpaceOnUse">
<stop stop-color="white"/>
<stop offset="1" stop-color="white" stop-opacity="0"/>
</linearGradient>
<linearGradient id="paint24_linear" x1="247.481" y1="319.012" x2="189.643" y2="415.934" gradientUnits="userSpaceOnUse">
<stop stop-color="white"/>
<stop offset="1" stop-color="white" stop-opacity="0"/>
</linearGradient>
<linearGradient id="paint25_linear" x1="208.589" y1="284.291" x2="227.19" y2="335.305" gradientUnits="userSpaceOnUse">
<stop stop-color="white"/>
<stop offset="1" stop-color="white" stop-opacity="0"/>
</linearGradient>
<clipPath id="clip0">
<rect width="789" height="539" fill="white"/>
</clipPath>
</defs>
</svg>
